%TF.GenerationSoftware,KiCad,Pcbnew,(5.1.6)-1*%
%TF.CreationDate,2026-03-01T20:04:38-05:00*%
%TF.ProjectId,board1,626f6172-6431-42e6-9b69-6361645f7063,rev?*%
%TF.SameCoordinates,PX26c1e00PY6bcb370*%
%TF.FileFunction,Copper,L2,Bot*%
%TF.FilePolarity,Positive*%
%FSLAX46Y46*%
G04 Gerber Fmt 4.6, Leading zero omitted, Abs format (unit mm)*
G04 Created by KiCad (PCBNEW (5.1.6)-1) date 2026-03-01 20:04:38*
%MOMM*%
%LPD*%
G01*
G04 APERTURE LIST*
%TA.AperFunction,ComponentPad*%
%ADD10C,2.200000*%
%TD*%
%TA.AperFunction,ComponentPad*%
%ADD11O,3.470000X2.200000*%
%TD*%
%TA.AperFunction,ComponentPad*%
%ADD12C,2.000000*%
%TD*%
%TA.AperFunction,ComponentPad*%
%ADD13O,2.200000X2.000000*%
%TD*%
%TA.AperFunction,ComponentPad*%
%ADD14O,2.200000X3.470000*%
%TD*%
%TA.AperFunction,ViaPad*%
%ADD15C,2.000000*%
%TD*%
%TA.AperFunction,Conductor*%
%ADD16C,2.200000*%
%TD*%
%TA.AperFunction,Conductor*%
%ADD17C,1.500000*%
%TD*%
%TA.AperFunction,Conductor*%
%ADD18C,2.000000*%
%TD*%
%TA.AperFunction,Conductor*%
%ADD19C,0.250000*%
%TD*%
G04 APERTURE END LIST*
D10*
%TO.P,J2,2*%
%TO.N,+5V*%
X5080000Y54610000D03*
%TO.P,J2,1*%
%TO.N,Net-(D1-Pad1)*%
X7620000Y54610000D03*
%TD*%
%TO.P,J8,2*%
%TO.N,Net-(J8-Pad2)*%
X20320000Y3810000D03*
%TO.P,J8,1*%
%TO.N,RS485_A*%
X17780000Y3810000D03*
%TD*%
%TO.P,U2,30*%
%TO.N,+3V3*%
X11430000Y24130000D03*
%TO.P,U2,29*%
%TO.N,GND*%
X13970000Y24130000D03*
%TO.P,U2,28*%
%TO.N,Net-(U2-Pad28)*%
X16510000Y24130000D03*
%TO.P,U2,27*%
%TO.N,ALIVE_LED*%
X19050000Y24130000D03*
%TO.P,U2,26*%
%TO.N,TX_EN*%
X21590000Y24130000D03*
%TO.P,U2,25*%
%TO.N,RX2*%
X24130000Y24130000D03*
%TO.P,U2,24*%
%TO.N,TX2*%
X26670000Y24130000D03*
%TO.P,U2,23*%
%TO.N,SDCS*%
X29210000Y24130000D03*
%TO.P,U2,22*%
%TO.N,SCLK*%
X31750000Y24130000D03*
%TO.P,U2,21*%
%TO.N,MISO*%
X34290000Y24130000D03*
%TO.P,U2,20*%
%TO.N,Net-(U2-Pad20)*%
X36830000Y24130000D03*
%TO.P,U2,19*%
%TO.N,Net-(U2-Pad19)*%
X39370000Y24130000D03*
%TO.P,U2,18*%
%TO.N,Net-(U2-Pad18)*%
X41910000Y24130000D03*
%TO.P,U2,17*%
%TO.N,Net-(U2-Pad17)*%
X44450000Y24130000D03*
%TO.P,U2,16*%
%TO.N,MOSI*%
X46990000Y24130000D03*
%TO.P,U2,15*%
%TO.N,Net-(U2-Pad15)*%
X46990000Y49530000D03*
%TO.P,U2,14*%
%TO.N,SENSOR*%
X44450000Y49530000D03*
%TO.P,U2,13*%
%TO.N,Net-(U2-Pad13)*%
X41910000Y49530000D03*
%TO.P,U2,12*%
%TO.N,Net-(U2-Pad12)*%
X39370000Y49530000D03*
%TO.P,U2,11*%
%TO.N,Net-(U2-Pad11)*%
X36830000Y49530000D03*
%TO.P,U2,10*%
%TO.N,WS2812B*%
X34290000Y49530000D03*
%TO.P,U2,9*%
%TO.N,PUMP*%
X31750000Y49530000D03*
%TO.P,U2,8*%
%TO.N,S_DRIVE*%
X29210000Y49530000D03*
%TO.P,U2,7*%
%TO.N,Net-(U2-Pad7)*%
X26670000Y49530000D03*
%TO.P,U2,6*%
%TO.N,Net-(U2-Pad6)*%
X24130000Y49530000D03*
%TO.P,U2,5*%
%TO.N,Net-(U2-Pad5)*%
X21590000Y49530000D03*
%TO.P,U2,4*%
%TO.N,Net-(U2-Pad4)*%
X19050000Y49530000D03*
%TO.P,U2,3*%
%TO.N,Net-(U2-Pad3)*%
X16510000Y49530000D03*
%TO.P,U2,2*%
%TO.N,GND*%
X13970000Y49530000D03*
%TO.P,U2,1*%
%TO.N,+5V*%
X11430000Y49530000D03*
%TD*%
%TO.P,R11,2*%
%TO.N,+3V3*%
X30480000Y39370000D03*
%TO.P,R11,1*%
%TO.N,MISO*%
X30480000Y31750000D03*
%TD*%
D11*
%TO.P,C1,1*%
%TO.N,+5V*%
X14605000Y73660000D03*
%TO.P,C1,2*%
%TO.N,GND*%
X19575000Y73660000D03*
%TD*%
D12*
%TO.P,C2,2*%
%TO.N,GND*%
X49490000Y67310000D03*
%TO.P,C2,1*%
%TO.N,SENSOR*%
X44450000Y67310000D03*
%TD*%
%TO.P,C4,2*%
%TO.N,GND*%
X13930000Y46990000D03*
%TO.P,C4,1*%
%TO.N,+5V*%
X11430000Y46990000D03*
%TD*%
D10*
%TO.P,D1,1*%
%TO.N,Net-(D1-Pad1)*%
X11430000Y57150000D03*
%TO.P,D1,2*%
%TO.N,Net-(D1-Pad2)*%
X11430000Y64770000D03*
%TD*%
%TO.P,D2,2*%
%TO.N,PUMP-*%
X10160000Y74930000D03*
%TO.P,D2,1*%
%TO.N,PUMP+*%
X10160000Y67310000D03*
%TD*%
D11*
%TO.P,J1,2*%
%TO.N,GND*%
X4450000Y63500000D03*
%TO.P,J1,1*%
%TO.N,PUMP+*%
X4450000Y67310000D03*
%TD*%
D10*
%TO.P,J3,1*%
%TO.N,GND*%
X7620000Y57150000D03*
%TO.P,J3,2*%
%TO.N,+5V*%
X5080000Y57150000D03*
%TD*%
D11*
%TO.P,J5,1*%
%TO.N,PUMP-*%
X4450000Y77470000D03*
%TO.P,J5,2*%
%TO.N,PUMP+*%
X4450000Y73660000D03*
%TD*%
%TO.P,M1,1*%
%TO.N,GND*%
X29845000Y55880000D03*
%TO.P,M1,2*%
X15875000Y55880000D03*
%TO.P,M1,3*%
%TO.N,Net-(D1-Pad2)*%
X15875000Y65380000D03*
%TO.P,M1,4*%
%TO.N,PUMP+*%
X29845000Y65380000D03*
%TD*%
D13*
%TO.P,Q1,1*%
%TO.N,Net-(Q1-Pad1)*%
X16510000Y83820000D03*
%TO.P,Q1,2*%
%TO.N,PUMP-*%
X13970000Y83820000D03*
%TO.P,Q1,3*%
%TO.N,GND*%
X11430000Y83820000D03*
%TD*%
D10*
%TO.P,R1,1*%
%TO.N,DRIVE_ROD*%
X49530000Y57150000D03*
%TO.P,R1,2*%
%TO.N,S_DRIVE*%
X49530000Y49530000D03*
%TD*%
%TO.P,R2,1*%
%TO.N,SENSOR_ROD*%
X44450000Y77470000D03*
%TO.P,R2,2*%
%TO.N,SENSOR*%
X44450000Y69850000D03*
%TD*%
%TO.P,R3,2*%
%TO.N,GND*%
X46990000Y77470000D03*
%TO.P,R3,1*%
%TO.N,SENSOR*%
X46990000Y69850000D03*
%TD*%
%TO.P,R4,1*%
%TO.N,RX2*%
X24130000Y31750000D03*
%TO.P,R4,2*%
%TO.N,+3V3*%
X24130000Y39370000D03*
%TD*%
%TO.P,R7,1*%
%TO.N,TX_EN*%
X21590000Y26670000D03*
%TO.P,R7,2*%
%TO.N,GND*%
X13970000Y26670000D03*
%TD*%
%TO.P,R8,2*%
%TO.N,Net-(J6-Pad2)*%
X27940000Y76200000D03*
%TO.P,R8,1*%
%TO.N,WS2812B*%
X35560000Y76200000D03*
%TD*%
%TO.P,R9,2*%
%TO.N,Net-(Q1-Pad1)*%
X22860000Y71120000D03*
%TO.P,R9,1*%
%TO.N,PUMP*%
X30480000Y71120000D03*
%TD*%
%TO.P,R10,1*%
%TO.N,Net-(Q1-Pad1)*%
X22860000Y73660000D03*
%TO.P,R10,2*%
%TO.N,GND*%
X30480000Y73660000D03*
%TD*%
%TO.P,U1,1*%
%TO.N,RX2*%
X53340000Y10160000D03*
%TO.P,U1,2*%
%TO.N,TX_EN*%
X53340000Y12700000D03*
%TO.P,U1,3*%
X53340000Y15240000D03*
%TO.P,U1,4*%
%TO.N,TX2*%
X53340000Y17780000D03*
%TO.P,U1,8*%
%TO.N,+3V3*%
X11840000Y10160000D03*
%TO.P,U1,5*%
%TO.N,GND*%
X11840000Y17780000D03*
%TO.P,U1,7*%
%TO.N,RS485_A*%
X11840000Y12700000D03*
%TO.P,U1,6*%
%TO.N,RS485_B*%
X11840000Y15240000D03*
%TD*%
D11*
%TO.P,J7,1*%
%TO.N,RS485_B*%
X4450000Y17780000D03*
%TO.P,J7,2*%
%TO.N,RS485_A*%
X4450000Y13970000D03*
%TO.P,J7,3*%
%TO.N,GND*%
X4450000Y10160000D03*
%TD*%
D10*
%TO.P,M2,6*%
%TO.N,+3V3*%
X34290000Y41910000D03*
%TO.P,M2,5*%
%TO.N,SDCS*%
X34290000Y39370000D03*
%TO.P,M2,4*%
%TO.N,MOSI*%
X34290000Y36830000D03*
%TO.P,M2,3*%
%TO.N,SCLK*%
X34290000Y34290000D03*
%TO.P,M2,2*%
%TO.N,MISO*%
X34290000Y31750000D03*
%TO.P,M2,1*%
%TO.N,GND*%
X34290000Y29210000D03*
%TD*%
%TO.P,R5,1*%
%TO.N,Net-(J8-Pad2)*%
X22860000Y3810000D03*
%TO.P,R5,2*%
%TO.N,RS485_B*%
X30480000Y3810000D03*
%TD*%
D14*
%TO.P,J4,3*%
%TO.N,GND*%
X38100000Y87120001D03*
%TO.P,J4,2*%
%TO.N,SENSOR_ROD*%
X41910000Y87120001D03*
%TO.P,J4,1*%
%TO.N,DRIVE_ROD*%
X45720000Y87120001D03*
%TD*%
%TO.P,J6,1*%
%TO.N,+5V*%
X31750000Y87120001D03*
%TO.P,J6,2*%
%TO.N,Net-(J6-Pad2)*%
X27940000Y87120001D03*
%TO.P,J6,3*%
%TO.N,GND*%
X24130000Y87120001D03*
%TD*%
D15*
%TO.N,+5V*%
X11430000Y52070000D03*
X12700000Y78740000D03*
X7620000Y59690000D03*
X7620000Y69850000D03*
X31750000Y78740000D03*
%TO.N,PUMP+*%
X12700000Y68580000D03*
X30480000Y68580000D03*
%TO.N,DRIVE_ROD*%
X52070000Y77470000D03*
X52070000Y57150000D03*
%TO.N,MOSI*%
X46990000Y36830000D03*
X46990000Y26670000D03*
%TO.N,+3V3*%
X11430000Y34290000D03*
X19050000Y34290000D03*
X8890000Y24130000D03*
X8890000Y10160000D03*
%TO.N,TX_EN*%
X31750000Y17780000D03*
X24130000Y17780000D03*
%TD*%
D16*
%TO.N,+5V*%
X5080000Y52070000D02*
X5080000Y54610000D01*
X11430000Y51085634D02*
X11430000Y49530000D01*
X5080000Y57150000D02*
X5080000Y54610000D01*
X11430000Y49530000D02*
X11430000Y46990000D01*
X11430000Y49530000D02*
X11430000Y52070000D01*
X11430000Y52070000D02*
X5080000Y52070000D01*
X11430000Y52070000D02*
X11430000Y52070000D01*
X5080000Y58705634D02*
X6064366Y59690000D01*
X5080000Y57150000D02*
X5080000Y58705634D01*
X6064366Y59690000D02*
X7620000Y59690000D01*
X15240000Y73660000D02*
X13970000Y73660000D01*
X10160000Y69850000D02*
X7620000Y69850000D01*
X12700000Y72390000D02*
X12700000Y78740000D01*
X12700000Y72390000D02*
X10160000Y69850000D01*
X13970000Y73660000D02*
X12700000Y72390000D01*
X12700000Y78740000D02*
X12700000Y78740000D01*
X7620000Y59690000D02*
X7620000Y59690000D01*
X7620000Y69850000D02*
X7620000Y69850000D01*
X31750000Y87750001D02*
X31750000Y78740000D01*
X31750000Y78740000D02*
X31750000Y78740000D01*
%TO.N,Net-(D1-Pad1)*%
X7620000Y54610000D02*
X11430000Y54610000D01*
X11430000Y57150000D02*
X11430000Y54610000D01*
%TO.N,Net-(D1-Pad2)*%
X11430000Y64770000D02*
X12985634Y64770000D01*
X12985634Y64770000D02*
X16510000Y64770000D01*
%TO.N,PUMP-*%
X5080000Y77470000D02*
X10160000Y77470000D01*
X10160000Y76200000D02*
X10160000Y78740000D01*
X10160000Y76200000D02*
X10160000Y74930000D01*
X10160000Y78740000D02*
X10160000Y81280000D01*
X10160000Y81280000D02*
X13970000Y81280000D01*
X13970000Y81280000D02*
X13970000Y83820000D01*
%TO.N,PUMP+*%
X3810000Y73660000D02*
X3810000Y67310000D01*
X10160000Y67310000D02*
X5080000Y67310000D01*
X30480000Y68580000D02*
X30480000Y66040000D01*
X11430000Y67310000D02*
X12700000Y68580000D01*
X10160000Y67310000D02*
X11430000Y67310000D01*
X5080000Y73660000D02*
X5080000Y67310000D01*
%TO.N,DRIVE_ROD*%
X52070000Y77470000D02*
X52070000Y77470000D01*
X49530000Y57150000D02*
X52070000Y57150000D01*
X52070000Y57150000D02*
X52070000Y57150000D01*
X45720000Y87750001D02*
X45720000Y87630000D01*
X45720000Y87750001D02*
X45720000Y85090000D01*
X45720000Y85090000D02*
X52070000Y78740000D01*
X52070000Y78740000D02*
X52070000Y77470000D01*
%TO.N,RS485_A*%
X6350000Y12700000D02*
X5080000Y13970000D01*
X6350000Y12700000D02*
X11430000Y12700000D01*
X17780000Y7614126D02*
X12694126Y12700000D01*
X17780000Y3810000D02*
X17780000Y7614126D01*
X12694126Y12700000D02*
X11430000Y12700000D01*
%TO.N,RS485_B*%
X7620000Y15240000D02*
X5080000Y17780000D01*
X7620000Y15240000D02*
X11430000Y15240000D01*
X30480000Y3810000D02*
X27940000Y6350000D01*
X27940000Y6350000D02*
X20320000Y6350000D01*
X20180009Y8608243D02*
X13548252Y15240000D01*
X20320000Y6350000D02*
X20180010Y6489990D01*
X20180010Y6489990D02*
X20180009Y8608243D01*
X13548252Y15240000D02*
X11430000Y15240000D01*
%TO.N,MISO*%
X30480000Y31750000D02*
X34290000Y31750000D01*
X34290000Y25685634D02*
X30480000Y29495634D01*
X34290000Y24130000D02*
X34290000Y25685634D01*
X30480000Y29495634D02*
X30480000Y31750000D01*
X32734366Y31750000D02*
X31750000Y30765634D01*
X34290000Y31750000D02*
X32734366Y31750000D01*
X31750000Y30765634D02*
X31750000Y29210000D01*
D17*
%TO.N,SCLK*%
X31260001Y24619999D02*
X31260001Y25816483D01*
X31750000Y24130000D02*
X31260001Y24619999D01*
X28429990Y28646493D02*
X28429990Y32599141D01*
X31260001Y25816483D02*
X28429990Y28646493D01*
X28429990Y32599141D02*
X29630859Y33800010D01*
X29630859Y33800010D02*
X33800010Y33800010D01*
X33800010Y33800010D02*
X34290000Y34290000D01*
D16*
%TO.N,MOSI*%
X34290000Y36830000D02*
X46990000Y36830000D01*
X46990000Y24130000D02*
X46990000Y26670000D01*
X46990000Y36830000D02*
X46990000Y36830000D01*
X46990000Y26670000D02*
X46990000Y26670000D01*
D17*
%TO.N,SDCS*%
X29210000Y25400000D02*
X29210000Y24130000D01*
X26729980Y27880020D02*
X29210000Y25400000D01*
X26729980Y33303307D02*
X26729980Y27880020D01*
X28926694Y35500020D02*
X26729980Y33303307D01*
X32239999Y35930039D02*
X31809980Y35500020D01*
X32239999Y37814001D02*
X32239999Y35930039D01*
X33795998Y39370000D02*
X32239999Y37814001D01*
X31809980Y35500020D02*
X28926694Y35500020D01*
X34290000Y39370000D02*
X33795998Y39370000D01*
D18*
X29210000Y25108753D02*
X26479980Y27838773D01*
X29210000Y24130000D02*
X29210000Y25108753D01*
X26479980Y27838773D02*
X26479980Y33303307D01*
D16*
%TO.N,+3V3*%
X11430000Y24130000D02*
X11430000Y26670000D01*
X34290000Y41910000D02*
X33020000Y41910000D01*
X33020000Y41910000D02*
X30480000Y39370000D01*
X30480000Y39370000D02*
X24130000Y39370000D01*
X11430000Y26670000D02*
X11430000Y34290000D01*
X24130000Y39370000D02*
X19050000Y34290000D01*
X11430000Y34290000D02*
X11430000Y34290000D01*
X19050000Y34290000D02*
X19050000Y34290000D01*
X11840000Y10160000D02*
X8890000Y10160000D01*
X11430000Y24130000D02*
X8890000Y24130000D01*
X8890000Y24130000D02*
X8890000Y24130000D01*
X8890000Y10160000D02*
X8890000Y10160000D01*
%TO.N,Net-(Q1-Pad1)*%
X22860000Y73660000D02*
X22860000Y71120000D01*
X22860000Y75215634D02*
X16795634Y81280000D01*
X22860000Y73660000D02*
X22860000Y75215634D01*
X16795634Y81280000D02*
X16370010Y81280000D01*
X16370010Y81280000D02*
X16370010Y83680010D01*
D17*
%TO.N,S_DRIVE*%
X43465999Y47479999D02*
X47974001Y47479999D01*
X43320998Y47625000D02*
X43465999Y47479999D01*
X43180000Y47625000D02*
X43320998Y47625000D01*
X38240998Y47625000D02*
X38385999Y47479999D01*
X30900859Y47479990D02*
X35414990Y47479990D01*
X29699990Y48680859D02*
X30900859Y47479990D01*
X35414990Y47479990D02*
X35414999Y47479999D01*
X38385999Y47479999D02*
X43034999Y47479999D01*
X29210000Y49530000D02*
X29699990Y49040010D01*
X47974001Y47479999D02*
X49040001Y48545999D01*
X29699990Y49040010D02*
X29699990Y48680859D01*
X35414999Y47479999D02*
X37954999Y47479999D01*
X38100000Y47625000D02*
X38240998Y47625000D01*
X43034999Y47479999D02*
X43180000Y47625000D01*
X37954999Y47479999D02*
X38100000Y47625000D01*
X49040001Y48545999D02*
X49040001Y49040001D01*
D16*
%TO.N,RX2*%
X26670000Y19180240D02*
X30545120Y15305120D01*
X51784366Y10160000D02*
X50800000Y11144366D01*
X53340000Y10160000D02*
X51784366Y10160000D01*
X50800000Y12700000D02*
X50800000Y11144366D01*
X48260000Y15240000D02*
X50800000Y12700000D01*
X30480000Y15240000D02*
X48260000Y15240000D01*
X24130000Y31750000D02*
X24130000Y24130000D01*
X24130000Y24130000D02*
X24130000Y21720240D01*
X28005120Y17845120D02*
X29349990Y17845120D01*
X24130000Y21720240D02*
X28005120Y17845120D01*
%TO.N,TX_EN*%
X53340000Y15240000D02*
X52070000Y15240000D01*
X52070000Y15240000D02*
X49530000Y17780000D01*
X49530000Y17780000D02*
X31750000Y17780000D01*
X53340000Y15240000D02*
X53340000Y12700000D01*
X31750000Y17780000D02*
X31750000Y17780000D01*
X24130000Y17780000D02*
X24130000Y17780000D01*
X21590000Y26670000D02*
X21590000Y24130000D01*
X22860000Y19050000D02*
X24130000Y17780000D01*
X21590000Y20320000D02*
X24130000Y17780000D01*
X21590000Y24130000D02*
X21590000Y20320000D01*
X53340000Y14255634D02*
X52355634Y15240000D01*
X52355634Y15240000D02*
X52070000Y15240000D01*
X53340000Y12700000D02*
X53340000Y14255634D01*
%TO.N,WS2812B*%
X34290000Y49530000D02*
X34290000Y52901748D01*
X35560000Y54171748D02*
X34290000Y52901748D01*
X35560000Y76200000D02*
X35560000Y54171748D01*
%TO.N,PUMP*%
X32880010Y70275624D02*
X32035634Y71120000D01*
X32880010Y54885884D02*
X32880010Y70275624D01*
X31750000Y49530000D02*
X31750000Y53755874D01*
X31750000Y53755874D02*
X32880010Y54885884D01*
X32035634Y71120000D02*
X30480000Y71120000D01*
%TO.N,TX2*%
X53340000Y17780000D02*
X50800000Y20320000D01*
X30480000Y20320000D02*
X33020000Y20320000D01*
X50800000Y20320000D02*
X33020000Y20320000D01*
X28924366Y20320000D02*
X26670000Y22574366D01*
X30480000Y20320000D02*
X28924366Y20320000D01*
X26670000Y22574366D02*
X26670000Y24130000D01*
%TO.N,Net-(J6-Pad2)*%
X27940000Y76200000D02*
X27940000Y87630000D01*
%TO.N,SENSOR*%
X44450000Y67310000D02*
X44450000Y69850000D01*
X44450000Y69850000D02*
X46990000Y69850000D01*
X44450000Y67310000D02*
X44450000Y49530000D01*
%TO.N,SENSOR_ROD*%
X44450000Y77470000D02*
X41910000Y80010000D01*
X41910000Y80010000D02*
X41910000Y87630000D01*
%TO.N,Net-(J8-Pad2)*%
X20320000Y3810000D02*
X22860000Y3810000D01*
%TD*%
D19*
%TO.N,GND*%
G36*
X57945000Y90193332D02*
G01*
X57942702Y90170000D01*
X57951873Y90076884D01*
X57979034Y89987346D01*
X58023141Y89904827D01*
X58082499Y89832499D01*
X58154827Y89773141D01*
X58237346Y89729034D01*
X58326884Y89701873D01*
X58420000Y89692702D01*
X58443332Y89695000D01*
X60485001Y89695000D01*
X60485000Y475000D01*
X475000Y475000D01*
X475000Y4009445D01*
X1785000Y4009445D01*
X1785000Y3610555D01*
X1862820Y3219329D01*
X2015468Y2850803D01*
X2237080Y2519138D01*
X2519138Y2237080D01*
X2850803Y2015468D01*
X3219329Y1862820D01*
X3610555Y1785000D01*
X4009445Y1785000D01*
X4400671Y1862820D01*
X4769197Y2015468D01*
X5100862Y2237080D01*
X5382920Y2519138D01*
X5604532Y2850803D01*
X5757180Y3219329D01*
X5835000Y3610555D01*
X5835000Y4009445D01*
X5757180Y4400671D01*
X5604532Y4769197D01*
X5382920Y5100862D01*
X5100862Y5382920D01*
X4769197Y5604532D01*
X4400671Y5757180D01*
X4009445Y5835000D01*
X3610555Y5835000D01*
X3219329Y5757180D01*
X2850803Y5604532D01*
X2519138Y5382920D01*
X2237080Y5100862D01*
X2015468Y4769197D01*
X1862820Y4400671D01*
X1785000Y4009445D01*
X475000Y4009445D01*
X475000Y17780000D01*
X2282622Y17780000D01*
X2312066Y17481048D01*
X2399267Y17193584D01*
X2540874Y16928656D01*
X2731445Y16696445D01*
X2963656Y16505874D01*
X3228584Y16364267D01*
X3516048Y16277066D01*
X3740089Y16255000D01*
X4448326Y16255000D01*
X5213614Y15489711D01*
X5159911Y15495000D01*
X5154911Y15495000D01*
X5080000Y15502378D01*
X5005089Y15495000D01*
X3740089Y15495000D01*
X3516048Y15472934D01*
X3228584Y15385733D01*
X2963656Y15244126D01*
X2731445Y15053555D01*
X2540874Y14821344D01*
X2399267Y14556416D01*
X2312066Y14268952D01*
X2282622Y13970000D01*
X2312066Y13671048D01*
X2399267Y13383584D01*
X2540874Y13118656D01*
X2731445Y12886445D01*
X2963656Y12695874D01*
X3228584Y12554267D01*
X3516048Y12467066D01*
X3740089Y12445000D01*
X4448326Y12445000D01*
X5218687Y11674638D01*
X5266445Y11616445D01*
X5498656Y11425874D01*
X5763584Y11284267D01*
X5984142Y11217362D01*
X6051047Y11197066D01*
X6349999Y11167622D01*
X6424910Y11175000D01*
X7750183Y11175000D01*
X7615874Y11011344D01*
X7474267Y10746416D01*
X7387066Y10458952D01*
X7357622Y10160000D01*
X7387066Y9861048D01*
X7474267Y9573584D01*
X7615874Y9308656D01*
X7806445Y9076445D01*
X8038656Y8885874D01*
X8303584Y8744267D01*
X8591048Y8657066D01*
X8815089Y8635000D01*
X11990199Y8635000D01*
X12064040Y8649688D01*
X12138952Y8657066D01*
X12210987Y8678917D01*
X12284826Y8693605D01*
X12354381Y8722415D01*
X12426416Y8744267D01*
X12492802Y8779751D01*
X12562358Y8808562D01*
X12624958Y8850390D01*
X12691344Y8885874D01*
X12749532Y8933627D01*
X12812131Y8975455D01*
X12865368Y9028692D01*
X12923555Y9076445D01*
X12971308Y9134632D01*
X13024545Y9187869D01*
X13066373Y9250468D01*
X13114126Y9308656D01*
X13149610Y9375042D01*
X13191438Y9437642D01*
X13220249Y9507198D01*
X13255733Y9573584D01*
X13277585Y9645619D01*
X13306395Y9715174D01*
X13321083Y9789013D01*
X13342934Y9861048D01*
X13345935Y9891517D01*
X16255001Y6982450D01*
X16255000Y3960199D01*
X16255000Y3659801D01*
X16269688Y3585960D01*
X16277066Y3511049D01*
X16298917Y3439016D01*
X16313605Y3365174D01*
X16342417Y3295616D01*
X16364267Y3223585D01*
X16399749Y3157202D01*
X16428562Y3087642D01*
X16470392Y3025038D01*
X16505874Y2958657D01*
X16553625Y2900472D01*
X16595455Y2837869D01*
X16648694Y2784630D01*
X16696445Y2726445D01*
X16754631Y2678693D01*
X16807869Y2625455D01*
X16870468Y2583627D01*
X16928656Y2535874D01*
X16995042Y2500390D01*
X17057642Y2458562D01*
X17127198Y2429751D01*
X17193584Y2394267D01*
X17265619Y2372415D01*
X17335174Y2343605D01*
X17409013Y2328917D01*
X17481048Y2307066D01*
X17555960Y2299688D01*
X17629801Y2285000D01*
X17705089Y2285000D01*
X17780000Y2277622D01*
X17854910Y2285000D01*
X17930199Y2285000D01*
X18004040Y2299688D01*
X18078951Y2307066D01*
X18150984Y2328917D01*
X18224826Y2343605D01*
X18294384Y2372417D01*
X18366415Y2394267D01*
X18432798Y2429749D01*
X18502358Y2458562D01*
X18564962Y2500392D01*
X18631343Y2535874D01*
X18689528Y2583625D01*
X18752131Y2625455D01*
X18805370Y2678694D01*
X18863555Y2726445D01*
X18911308Y2784632D01*
X18964545Y2837869D01*
X19006373Y2900468D01*
X19050000Y2953628D01*
X19093627Y2900468D01*
X19135455Y2837869D01*
X19188692Y2784632D01*
X19236445Y2726445D01*
X19294631Y2678693D01*
X19347869Y2625455D01*
X19410468Y2583627D01*
X19468656Y2535874D01*
X19535042Y2500390D01*
X19597642Y2458562D01*
X19667198Y2429751D01*
X19733584Y2394267D01*
X19805619Y2372415D01*
X19875174Y2343605D01*
X19949013Y2328917D01*
X20021048Y2307066D01*
X20095960Y2299688D01*
X20169801Y2285000D01*
X23010199Y2285000D01*
X23084040Y2299688D01*
X23158952Y2307066D01*
X23230987Y2328917D01*
X23304826Y2343605D01*
X23374381Y2372415D01*
X23446416Y2394267D01*
X23512802Y2429751D01*
X23582358Y2458562D01*
X23644958Y2500390D01*
X23711344Y2535874D01*
X23769532Y2583627D01*
X23832131Y2625455D01*
X23885369Y2678693D01*
X23943555Y2726445D01*
X23991308Y2784632D01*
X24044545Y2837869D01*
X24086373Y2900468D01*
X24134126Y2958656D01*
X24169610Y3025042D01*
X24211438Y3087642D01*
X24240249Y3157198D01*
X24275733Y3223584D01*
X24297585Y3295619D01*
X24326395Y3365174D01*
X24341083Y3439013D01*
X24362934Y3511048D01*
X24370312Y3585960D01*
X24385000Y3659801D01*
X24385000Y3735090D01*
X24392378Y3810000D01*
X24385000Y3884911D01*
X24385000Y3960199D01*
X24370312Y4034040D01*
X24362934Y4108952D01*
X24341083Y4180987D01*
X24326395Y4254826D01*
X24297585Y4324381D01*
X24275733Y4396416D01*
X24240249Y4462802D01*
X24211438Y4532358D01*
X24169610Y4594958D01*
X24134126Y4661344D01*
X24086373Y4719532D01*
X24044545Y4782131D01*
X24001676Y4825000D01*
X27308326Y4825000D01*
X29295455Y2837869D01*
X29507869Y2625455D01*
X29570469Y2583627D01*
X29628655Y2535875D01*
X29695038Y2500393D01*
X29757642Y2458562D01*
X29827205Y2429748D01*
X29893584Y2394268D01*
X29965611Y2372419D01*
X30035174Y2343605D01*
X30109021Y2328916D01*
X30181047Y2307067D01*
X30255951Y2299690D01*
X30329801Y2285000D01*
X30405099Y2285000D01*
X30479999Y2277623D01*
X30554899Y2285000D01*
X30630199Y2285000D01*
X30704051Y2299690D01*
X30778951Y2307067D01*
X30850974Y2328915D01*
X30924826Y2343605D01*
X30994393Y2372420D01*
X31066415Y2394268D01*
X31132789Y2429746D01*
X31202358Y2458562D01*
X31264969Y2500397D01*
X31331343Y2535875D01*
X31389520Y2583619D01*
X31452131Y2625455D01*
X31505379Y2678703D01*
X31563554Y2726446D01*
X31611297Y2784621D01*
X31664545Y2837869D01*
X31706381Y2900480D01*
X31754125Y2958657D01*
X31789603Y3025031D01*
X31831438Y3087642D01*
X31860254Y3157211D01*
X31895732Y3223585D01*
X31917580Y3295607D01*
X31946395Y3365174D01*
X31961085Y3439026D01*
X31982933Y3511049D01*
X31990310Y3585949D01*
X32005000Y3659801D01*
X32005000Y3735101D01*
X32012377Y3810001D01*
X32005000Y3884901D01*
X32005000Y3960199D01*
X31995205Y4009445D01*
X55125000Y4009445D01*
X55125000Y3610555D01*
X55202820Y3219329D01*
X55355468Y2850803D01*
X55577080Y2519138D01*
X55859138Y2237080D01*
X56190803Y2015468D01*
X56559329Y1862820D01*
X56950555Y1785000D01*
X57349445Y1785000D01*
X57740671Y1862820D01*
X58109197Y2015468D01*
X58440862Y2237080D01*
X58722920Y2519138D01*
X58944532Y2850803D01*
X59097180Y3219329D01*
X59175000Y3610555D01*
X59175000Y4009445D01*
X59097180Y4400671D01*
X58944532Y4769197D01*
X58722920Y5100862D01*
X58440862Y5382920D01*
X58109197Y5604532D01*
X57740671Y5757180D01*
X57349445Y5835000D01*
X56950555Y5835000D01*
X56559329Y5757180D01*
X56190803Y5604532D01*
X55859138Y5382920D01*
X55577080Y5100862D01*
X55355468Y4769197D01*
X55202820Y4400671D01*
X55125000Y4009445D01*
X31995205Y4009445D01*
X31990310Y4034049D01*
X31982933Y4108953D01*
X31961084Y4180979D01*
X31946395Y4254826D01*
X31917581Y4324389D01*
X31895732Y4396416D01*
X31860252Y4462795D01*
X31831438Y4532358D01*
X31789607Y4594962D01*
X31754125Y4661345D01*
X31706373Y4719531D01*
X31664545Y4782131D01*
X31452131Y4994545D01*
X29071316Y7375358D01*
X29023555Y7433555D01*
X28791344Y7624126D01*
X28526416Y7765733D01*
X28238952Y7852934D01*
X28014911Y7875000D01*
X27940000Y7882378D01*
X27865089Y7875000D01*
X21705009Y7875000D01*
X21705008Y8533324D01*
X21712387Y8608243D01*
X21682943Y8907195D01*
X21595742Y9194659D01*
X21454135Y9459587D01*
X21311317Y9633611D01*
X21311311Y9633617D01*
X21263563Y9691798D01*
X21205382Y9739546D01*
X14679569Y16265357D01*
X14631807Y16323555D01*
X14399596Y16514126D01*
X14134668Y16655733D01*
X13847204Y16742934D01*
X13623163Y16765000D01*
X13548252Y16772378D01*
X13473341Y16765000D01*
X8251676Y16765000D01*
X6239199Y18777475D01*
X6168555Y18863555D01*
X5936344Y19054126D01*
X5671416Y19195733D01*
X5383952Y19282934D01*
X5159911Y19305000D01*
X5154911Y19305000D01*
X5080000Y19312378D01*
X5005089Y19305000D01*
X3740089Y19305000D01*
X3516048Y19282934D01*
X3228584Y19195733D01*
X2963656Y19054126D01*
X2731445Y18863555D01*
X2540874Y18631344D01*
X2399267Y18366416D01*
X2312066Y18078952D01*
X2282622Y17780000D01*
X475000Y17780000D01*
X475000Y24130000D01*
X7357622Y24130000D01*
X7387066Y23831048D01*
X7474267Y23543584D01*
X7615874Y23278656D01*
X7806445Y23046445D01*
X8038656Y22855874D01*
X8303584Y22714267D01*
X8591048Y22627066D01*
X8815089Y22605000D01*
X11355089Y22605000D01*
X11430000Y22597622D01*
X11504910Y22605000D01*
X11580199Y22605000D01*
X11654040Y22619688D01*
X11728952Y22627066D01*
X11800987Y22648917D01*
X11874826Y22663605D01*
X11944381Y22692415D01*
X12016416Y22714267D01*
X12082802Y22749751D01*
X12152358Y22778562D01*
X12214958Y22820390D01*
X12281344Y22855874D01*
X12339532Y22903627D01*
X12402131Y22945455D01*
X12455368Y22998692D01*
X12513555Y23046445D01*
X12561308Y23104632D01*
X12614545Y23157869D01*
X12656373Y23220468D01*
X12704126Y23278656D01*
X12739610Y23345042D01*
X12781438Y23407642D01*
X12810249Y23477198D01*
X12845733Y23543584D01*
X12867585Y23615619D01*
X12896395Y23685174D01*
X12911083Y23759013D01*
X12932934Y23831048D01*
X12940312Y23905960D01*
X12955000Y23979801D01*
X12955000Y24055090D01*
X12962378Y24130000D01*
X12955000Y24204911D01*
X12955000Y24280199D01*
X14985000Y24280199D01*
X14985000Y23979801D01*
X15043605Y23685174D01*
X15158562Y23407642D01*
X15325455Y23157869D01*
X15537869Y22945455D01*
X15787642Y22778562D01*
X16065174Y22663605D01*
X16359801Y22605000D01*
X16660199Y22605000D01*
X16954826Y22663605D01*
X17232358Y22778562D01*
X17482131Y22945455D01*
X17694545Y23157869D01*
X17780000Y23285761D01*
X17865455Y23157869D01*
X18077869Y22945455D01*
X18327642Y22778562D01*
X18605174Y22663605D01*
X18899801Y22605000D01*
X19200199Y22605000D01*
X19494826Y22663605D01*
X19772358Y22778562D01*
X20022131Y22945455D01*
X20065000Y22988324D01*
X20065001Y20394920D01*
X20057622Y20320000D01*
X20087066Y20021048D01*
X20174267Y19733585D01*
X20174268Y19733584D01*
X20315875Y19468656D01*
X20506446Y19236445D01*
X20564638Y19188688D01*
X22998691Y16754633D01*
X23046445Y16696445D01*
X23278656Y16505874D01*
X23543584Y16364267D01*
X23764142Y16297362D01*
X23831047Y16277066D01*
X24129999Y16247622D01*
X24204910Y16255000D01*
X24204911Y16255000D01*
X24428952Y16277066D01*
X24716416Y16364267D01*
X24981344Y16505874D01*
X25213555Y16696445D01*
X25404126Y16928656D01*
X25545733Y17193584D01*
X25632934Y17481048D01*
X25662378Y17780000D01*
X25634936Y18058630D01*
X26873808Y16819757D01*
X26921565Y16761565D01*
X26979761Y16713805D01*
X29092154Y14601411D01*
X29205874Y14388656D01*
X29396445Y14156445D01*
X29628656Y13965874D01*
X29893584Y13824267D01*
X30181048Y13737066D01*
X30405089Y13715000D01*
X47628326Y13715000D01*
X49275000Y12068324D01*
X49275000Y11219277D01*
X49267622Y11144366D01*
X49297066Y10845414D01*
X49384267Y10557951D01*
X49450184Y10434630D01*
X49525875Y10293022D01*
X49716446Y10060811D01*
X49774638Y10013054D01*
X50653053Y9134638D01*
X50700811Y9076445D01*
X50933022Y8885874D01*
X51197950Y8744267D01*
X51485414Y8657066D01*
X51663827Y8639494D01*
X51784366Y8627622D01*
X51859277Y8635000D01*
X53490199Y8635000D01*
X53564040Y8649688D01*
X53638952Y8657066D01*
X53710987Y8678917D01*
X53784826Y8693605D01*
X53854381Y8722415D01*
X53926416Y8744267D01*
X53992802Y8779751D01*
X54062358Y8808562D01*
X54124958Y8850390D01*
X54191344Y8885874D01*
X54249532Y8933627D01*
X54312131Y8975455D01*
X54365368Y9028692D01*
X54423555Y9076445D01*
X54471308Y9134632D01*
X54524545Y9187869D01*
X54566373Y9250468D01*
X54614126Y9308656D01*
X54649610Y9375042D01*
X54691438Y9437642D01*
X54720249Y9507198D01*
X54755733Y9573584D01*
X54777585Y9645619D01*
X54806395Y9715174D01*
X54821083Y9789013D01*
X54842934Y9861048D01*
X54850312Y9935960D01*
X54865000Y10009801D01*
X54865000Y10085089D01*
X54872378Y10160000D01*
X54865000Y10234911D01*
X54865000Y10310199D01*
X54850312Y10384040D01*
X54842934Y10458952D01*
X54821083Y10530987D01*
X54806395Y10604826D01*
X54777585Y10674381D01*
X54755733Y10746416D01*
X54720249Y10812802D01*
X54691438Y10882358D01*
X54649610Y10944958D01*
X54614126Y11011344D01*
X54566373Y11069532D01*
X54524545Y11132131D01*
X54471308Y11185368D01*
X54423555Y11243555D01*
X54365368Y11291308D01*
X54312131Y11344545D01*
X54249532Y11386373D01*
X54196372Y11430000D01*
X54249532Y11473627D01*
X54312131Y11515455D01*
X54365369Y11568693D01*
X54423555Y11616445D01*
X54471309Y11674633D01*
X54524545Y11727869D01*
X54566373Y11790468D01*
X54614126Y11848656D01*
X54649610Y11915042D01*
X54691438Y11977642D01*
X54720249Y12047198D01*
X54755733Y12113584D01*
X54777585Y12185619D01*
X54806395Y12255174D01*
X54821083Y12329013D01*
X54842934Y12401048D01*
X54850312Y12475960D01*
X54865000Y12549801D01*
X54865000Y14180723D01*
X54872378Y14255634D01*
X54865000Y14330545D01*
X54865000Y15165089D01*
X54872378Y15240000D01*
X54865000Y15314911D01*
X54865000Y15390199D01*
X54850312Y15464040D01*
X54842934Y15538952D01*
X54821083Y15610987D01*
X54806395Y15684826D01*
X54777585Y15754381D01*
X54755733Y15826416D01*
X54720249Y15892802D01*
X54691438Y15962358D01*
X54649610Y16024958D01*
X54614126Y16091344D01*
X54566373Y16149532D01*
X54524545Y16212131D01*
X54471307Y16265369D01*
X54423555Y16323555D01*
X54365368Y16371308D01*
X54312131Y16424545D01*
X54249532Y16466373D01*
X54196370Y16510001D01*
X54249520Y16553619D01*
X54312131Y16595455D01*
X54365379Y16648703D01*
X54423554Y16696446D01*
X54471297Y16754621D01*
X54524545Y16807869D01*
X54566381Y16870480D01*
X54614125Y16928657D01*
X54649603Y16995031D01*
X54691438Y17057642D01*
X54720254Y17127211D01*
X54755732Y17193585D01*
X54777580Y17265607D01*
X54806395Y17335174D01*
X54821085Y17409026D01*
X54842933Y17481049D01*
X54850310Y17555949D01*
X54865000Y17629801D01*
X54865000Y17705101D01*
X54872377Y17780001D01*
X54865000Y17854901D01*
X54865000Y17930199D01*
X54850310Y18004049D01*
X54842933Y18078953D01*
X54821084Y18150979D01*
X54806395Y18224826D01*
X54777581Y18294389D01*
X54755732Y18366416D01*
X54720252Y18432795D01*
X54691438Y18502358D01*
X54649607Y18564962D01*
X54614125Y18631345D01*
X54566373Y18689531D01*
X54524545Y18752131D01*
X54312131Y18964545D01*
X51931316Y21345358D01*
X51883555Y21403555D01*
X51651344Y21594126D01*
X51386416Y21735733D01*
X51098952Y21822934D01*
X50874911Y21845000D01*
X50800000Y21852378D01*
X50725089Y21845000D01*
X29556041Y21845000D01*
X28717821Y22683219D01*
X28765174Y22663605D01*
X29059801Y22605000D01*
X29360199Y22605000D01*
X29654826Y22663605D01*
X29932358Y22778562D01*
X30182131Y22945455D01*
X30394545Y23157869D01*
X30480000Y23285761D01*
X30565455Y23157869D01*
X30777869Y22945455D01*
X31027642Y22778562D01*
X31305174Y22663605D01*
X31599801Y22605000D01*
X31900199Y22605000D01*
X32194826Y22663605D01*
X32472358Y22778562D01*
X32722131Y22945455D01*
X32934545Y23157869D01*
X33015598Y23279173D01*
X33015874Y23278657D01*
X33063625Y23220472D01*
X33105455Y23157869D01*
X33158694Y23104630D01*
X33206445Y23046445D01*
X33264632Y22998692D01*
X33317869Y22945455D01*
X33380468Y22903627D01*
X33438656Y22855874D01*
X33505042Y22820390D01*
X33567642Y22778562D01*
X33637198Y22749751D01*
X33703584Y22714267D01*
X33775619Y22692415D01*
X33845174Y22663605D01*
X33919013Y22648917D01*
X33991048Y22627066D01*
X34065960Y22619688D01*
X34139801Y22605000D01*
X34215089Y22605000D01*
X34290000Y22597622D01*
X34364910Y22605000D01*
X34440199Y22605000D01*
X34514040Y22619688D01*
X34588951Y22627066D01*
X34660984Y22648917D01*
X34734826Y22663605D01*
X34804384Y22692417D01*
X34876415Y22714267D01*
X34942798Y22749749D01*
X35012358Y22778562D01*
X35074962Y22820392D01*
X35141343Y22855874D01*
X35199528Y22903625D01*
X35262131Y22945455D01*
X35315370Y22998694D01*
X35373555Y23046445D01*
X35421308Y23104632D01*
X35474545Y23157869D01*
X35516373Y23220468D01*
X35564126Y23278656D01*
X35564402Y23279173D01*
X35645455Y23157869D01*
X35857869Y22945455D01*
X36107642Y22778562D01*
X36385174Y22663605D01*
X36679801Y22605000D01*
X36980199Y22605000D01*
X37274826Y22663605D01*
X37552358Y22778562D01*
X37802131Y22945455D01*
X38014545Y23157869D01*
X38100000Y23285761D01*
X38185455Y23157869D01*
X38397869Y22945455D01*
X38647642Y22778562D01*
X38925174Y22663605D01*
X39219801Y22605000D01*
X39520199Y22605000D01*
X39814826Y22663605D01*
X40092358Y22778562D01*
X40342131Y22945455D01*
X40554545Y23157869D01*
X40640000Y23285761D01*
X40725455Y23157869D01*
X40937869Y22945455D01*
X41187642Y22778562D01*
X41465174Y22663605D01*
X41759801Y22605000D01*
X42060199Y22605000D01*
X42354826Y22663605D01*
X42632358Y22778562D01*
X42882131Y22945455D01*
X43094545Y23157869D01*
X43180000Y23285761D01*
X43265455Y23157869D01*
X43477869Y22945455D01*
X43727642Y22778562D01*
X44005174Y22663605D01*
X44299801Y22605000D01*
X44600199Y22605000D01*
X44894826Y22663605D01*
X45172358Y22778562D01*
X45422131Y22945455D01*
X45634545Y23157869D01*
X45715598Y23279173D01*
X45715874Y23278657D01*
X45763625Y23220472D01*
X45805455Y23157869D01*
X45858694Y23104630D01*
X45906445Y23046445D01*
X45964632Y22998692D01*
X46017869Y22945455D01*
X46080468Y22903627D01*
X46138656Y22855874D01*
X46205042Y22820390D01*
X46267642Y22778562D01*
X46337198Y22749751D01*
X46403584Y22714267D01*
X46475619Y22692415D01*
X46545174Y22663605D01*
X46619013Y22648917D01*
X46691048Y22627066D01*
X46765960Y22619688D01*
X46839801Y22605000D01*
X46915089Y22605000D01*
X46990000Y22597622D01*
X47064910Y22605000D01*
X47140199Y22605000D01*
X47214040Y22619688D01*
X47288951Y22627066D01*
X47360984Y22648917D01*
X47434826Y22663605D01*
X47504384Y22692417D01*
X47576415Y22714267D01*
X47642798Y22749749D01*
X47712358Y22778562D01*
X47774962Y22820392D01*
X47841343Y22855874D01*
X47899528Y22903625D01*
X47962131Y22945455D01*
X48015370Y22998694D01*
X48073555Y23046445D01*
X48121308Y23104632D01*
X48174545Y23157869D01*
X48216373Y23220468D01*
X48264126Y23278656D01*
X48299610Y23345042D01*
X48341438Y23407642D01*
X48370249Y23477198D01*
X48405733Y23543584D01*
X48427585Y23615619D01*
X48456395Y23685174D01*
X48471083Y23759013D01*
X48492934Y23831048D01*
X48500312Y23905960D01*
X48515000Y23979801D01*
X48515000Y26595090D01*
X48522378Y26670000D01*
X48492934Y26968952D01*
X48405733Y27256416D01*
X48264126Y27521344D01*
X48073555Y27753555D01*
X47841344Y27944126D01*
X47576416Y28085733D01*
X47288952Y28172934D01*
X47064911Y28195000D01*
X46990000Y28202378D01*
X46915090Y28195000D01*
X46915089Y28195000D01*
X46691048Y28172934D01*
X46403584Y28085733D01*
X46138656Y27944126D01*
X45906445Y27753555D01*
X45715874Y27521344D01*
X45574267Y27256416D01*
X45487066Y26968952D01*
X45457622Y26670000D01*
X45465001Y26595080D01*
X45465000Y25271676D01*
X45422131Y25314545D01*
X45172358Y25481438D01*
X44894826Y25596395D01*
X44600199Y25655000D01*
X44299801Y25655000D01*
X44005174Y25596395D01*
X43727642Y25481438D01*
X43477869Y25314545D01*
X43265455Y25102131D01*
X43180000Y24974239D01*
X43094545Y25102131D01*
X42882131Y25314545D01*
X42632358Y25481438D01*
X42354826Y25596395D01*
X42060199Y25655000D01*
X41759801Y25655000D01*
X41465174Y25596395D01*
X41187642Y25481438D01*
X40937869Y25314545D01*
X40725455Y25102131D01*
X40640000Y24974239D01*
X40554545Y25102131D01*
X40342131Y25314545D01*
X40092358Y25481438D01*
X39814826Y25596395D01*
X39520199Y25655000D01*
X39219801Y25655000D01*
X38925174Y25596395D01*
X38647642Y25481438D01*
X38397869Y25314545D01*
X38185455Y25102131D01*
X38100000Y24974239D01*
X38014545Y25102131D01*
X37802131Y25314545D01*
X37552358Y25481438D01*
X37274826Y25596395D01*
X36980199Y25655000D01*
X36679801Y25655000D01*
X36385174Y25596395D01*
X36107642Y25481438D01*
X35857869Y25314545D01*
X35815000Y25271676D01*
X35815000Y25610723D01*
X35822378Y25685634D01*
X35809491Y25816484D01*
X35792934Y25984586D01*
X35705733Y26272050D01*
X35564126Y26536978D01*
X35470261Y26651353D01*
X35421308Y26711002D01*
X35373555Y26769189D01*
X35315368Y26816942D01*
X33245562Y28886747D01*
X33252934Y28911048D01*
X33275000Y29135089D01*
X33275000Y30133960D01*
X33366041Y30225000D01*
X34440199Y30225000D01*
X34514040Y30239688D01*
X34588952Y30247066D01*
X34660987Y30268917D01*
X34734826Y30283605D01*
X34804381Y30312415D01*
X34876416Y30334267D01*
X34942802Y30369751D01*
X35012358Y30398562D01*
X35074958Y30440390D01*
X35141344Y30475874D01*
X35199532Y30523627D01*
X35262131Y30565455D01*
X35315368Y30618692D01*
X35373555Y30666445D01*
X35421309Y30724633D01*
X35474545Y30777869D01*
X35516373Y30840468D01*
X35564126Y30898656D01*
X35599610Y30965042D01*
X35641438Y31027642D01*
X35670249Y31097198D01*
X35705733Y31163584D01*
X35727585Y31235619D01*
X35756395Y31305174D01*
X35771083Y31379013D01*
X35792934Y31451048D01*
X35800312Y31525960D01*
X35815000Y31599801D01*
X35815000Y31675089D01*
X35822378Y31750000D01*
X35815000Y31824911D01*
X35815000Y31900199D01*
X35800312Y31974040D01*
X35792934Y32048952D01*
X35771083Y32120987D01*
X35756395Y32194826D01*
X35727585Y32264381D01*
X35705733Y32336416D01*
X35670249Y32402802D01*
X35641438Y32472358D01*
X35599610Y32534958D01*
X35564126Y32601344D01*
X35516373Y32659532D01*
X35474545Y32722131D01*
X35421308Y32775368D01*
X35373555Y32833555D01*
X35315368Y32881308D01*
X35262131Y32934545D01*
X35199532Y32976373D01*
X35141344Y33024126D01*
X35140827Y33024402D01*
X35262131Y33105455D01*
X35474545Y33317869D01*
X35641438Y33567642D01*
X35756395Y33845174D01*
X35815000Y34139801D01*
X35815000Y34440199D01*
X35756395Y34734826D01*
X35641438Y35012358D01*
X35474545Y35262131D01*
X35431676Y35305000D01*
X47064911Y35305000D01*
X47288952Y35327066D01*
X47576416Y35414267D01*
X47841344Y35555874D01*
X48073555Y35746445D01*
X48264126Y35978656D01*
X48405733Y36243584D01*
X48492934Y36531048D01*
X48522378Y36830000D01*
X48492934Y37128952D01*
X48405733Y37416416D01*
X48264126Y37681344D01*
X48073555Y37913555D01*
X47841344Y38104126D01*
X47576416Y38245733D01*
X47288952Y38332934D01*
X47064911Y38355000D01*
X35431676Y38355000D01*
X35474545Y38397869D01*
X35641438Y38647642D01*
X35756395Y38925174D01*
X35815000Y39219801D01*
X35815000Y39520199D01*
X35756395Y39814826D01*
X35641438Y40092358D01*
X35474545Y40342131D01*
X35262131Y40554545D01*
X35140827Y40635598D01*
X35141344Y40635874D01*
X35199532Y40683627D01*
X35262131Y40725455D01*
X35315368Y40778692D01*
X35373555Y40826445D01*
X35421308Y40884632D01*
X35474545Y40937869D01*
X35516373Y41000468D01*
X35564126Y41058656D01*
X35599610Y41125042D01*
X35641438Y41187642D01*
X35670249Y41257198D01*
X35705733Y41323584D01*
X35727585Y41395619D01*
X35756395Y41465174D01*
X35771083Y41539013D01*
X35792934Y41611048D01*
X35800312Y41685960D01*
X35815000Y41759801D01*
X35815000Y41835089D01*
X35822378Y41910000D01*
X35815000Y41984911D01*
X35815000Y42060199D01*
X35800312Y42134040D01*
X35792934Y42208952D01*
X35771083Y42280987D01*
X35756395Y42354826D01*
X35727585Y42424381D01*
X35705733Y42496416D01*
X35670249Y42562802D01*
X35641438Y42632358D01*
X35599610Y42694958D01*
X35564126Y42761344D01*
X35516373Y42819532D01*
X35474545Y42882131D01*
X35421308Y42935368D01*
X35373555Y42993555D01*
X35315368Y43041308D01*
X35262131Y43094545D01*
X35199532Y43136373D01*
X35141344Y43184126D01*
X35074958Y43219610D01*
X35012358Y43261438D01*
X34942802Y43290249D01*
X34876416Y43325733D01*
X34804381Y43347585D01*
X34734826Y43376395D01*
X34660987Y43391083D01*
X34588952Y43412934D01*
X34514040Y43420312D01*
X34440199Y43435000D01*
X33094899Y43435000D01*
X33019999Y43442377D01*
X32945099Y43435000D01*
X32945089Y43435000D01*
X32721048Y43412934D01*
X32433584Y43325733D01*
X32168656Y43184126D01*
X31936445Y42993555D01*
X31888692Y42935368D01*
X29848326Y40895000D01*
X24204911Y40895000D01*
X24130000Y40902378D01*
X24055089Y40895000D01*
X23979801Y40895000D01*
X23905960Y40880312D01*
X23831048Y40872934D01*
X23759013Y40851083D01*
X23685174Y40836395D01*
X23615619Y40807585D01*
X23543584Y40785733D01*
X23477198Y40750249D01*
X23407642Y40721438D01*
X23345042Y40679610D01*
X23278656Y40644126D01*
X23220468Y40596373D01*
X23157869Y40554545D01*
X23104632Y40501308D01*
X23046445Y40453555D01*
X22998692Y40395368D01*
X22945455Y40342131D01*
X22945453Y40342128D01*
X18024643Y35421317D01*
X17966445Y35373555D01*
X17775874Y35141344D01*
X17634267Y34876416D01*
X17547066Y34588952D01*
X17517622Y34290000D01*
X17547066Y33991048D01*
X17634267Y33703584D01*
X17775874Y33438656D01*
X17966445Y33206445D01*
X18198656Y33015874D01*
X18463584Y32874267D01*
X18751048Y32787066D01*
X19050000Y32757622D01*
X19348952Y32787066D01*
X19636416Y32874267D01*
X19901344Y33015874D01*
X20133555Y33206445D01*
X20181317Y33264643D01*
X24761675Y37845000D01*
X30405089Y37845000D01*
X30480000Y37837622D01*
X30554911Y37845000D01*
X30630199Y37845000D01*
X30704040Y37859688D01*
X30778952Y37867066D01*
X30794294Y37871720D01*
X30850987Y37888917D01*
X30924826Y37903605D01*
X30994381Y37932415D01*
X31066416Y37954267D01*
X31073502Y37958055D01*
X31064999Y37871720D01*
X31064999Y37871713D01*
X31059315Y37814001D01*
X31064999Y37756288D01*
X31065000Y36675020D01*
X28984406Y36675020D01*
X28926694Y36680704D01*
X28868982Y36675020D01*
X28868974Y36675020D01*
X28715899Y36659943D01*
X28696353Y36658018D01*
X28474865Y36590831D01*
X28270741Y36481724D01*
X28091824Y36334890D01*
X28055032Y36290059D01*
X26498363Y34733390D01*
X26479980Y34735201D01*
X26200632Y34707688D01*
X25932019Y34626205D01*
X25684463Y34493883D01*
X25467479Y34315809D01*
X25289405Y34098825D01*
X25157083Y33851269D01*
X25075600Y33582656D01*
X25054981Y33373304D01*
X25054981Y32966050D01*
X25039528Y32976375D01*
X24981343Y33024126D01*
X24914962Y33059608D01*
X24852358Y33101438D01*
X24782798Y33130251D01*
X24716415Y33165733D01*
X24644384Y33187583D01*
X24574826Y33216395D01*
X24500984Y33231083D01*
X24428951Y33252934D01*
X24354040Y33260312D01*
X24280199Y33275000D01*
X24204910Y33275000D01*
X24130000Y33282378D01*
X24055089Y33275000D01*
X23979801Y33275000D01*
X23905960Y33260312D01*
X23831048Y33252934D01*
X23759013Y33231083D01*
X23685174Y33216395D01*
X23615619Y33187585D01*
X23543584Y33165733D01*
X23477198Y33130249D01*
X23407642Y33101438D01*
X23345042Y33059610D01*
X23278656Y33024126D01*
X23220468Y32976373D01*
X23157869Y32934545D01*
X23104632Y32881308D01*
X23046445Y32833555D01*
X22998694Y32775370D01*
X22945455Y32722131D01*
X22903625Y32659528D01*
X22855874Y32601343D01*
X22820392Y32534962D01*
X22778562Y32472358D01*
X22749749Y32402798D01*
X22714267Y32336415D01*
X22692417Y32264384D01*
X22663605Y32194826D01*
X22648917Y32120984D01*
X22627066Y32048951D01*
X22619688Y31974040D01*
X22605000Y31900199D01*
X22605000Y31824910D01*
X22605001Y27811675D01*
X22562131Y27854545D01*
X22499528Y27896375D01*
X22441343Y27944126D01*
X22374962Y27979608D01*
X22312358Y28021438D01*
X22242798Y28050251D01*
X22176415Y28085733D01*
X22104384Y28107583D01*
X22034826Y28136395D01*
X21960984Y28151083D01*
X21888951Y28172934D01*
X21814040Y28180312D01*
X21740199Y28195000D01*
X21664910Y28195000D01*
X21590000Y28202378D01*
X21515089Y28195000D01*
X21439801Y28195000D01*
X21365960Y28180312D01*
X21291048Y28172934D01*
X21219013Y28151083D01*
X21145174Y28136395D01*
X21075619Y28107585D01*
X21003584Y28085733D01*
X20937198Y28050249D01*
X20867642Y28021438D01*
X20805042Y27979610D01*
X20738656Y27944126D01*
X20680468Y27896373D01*
X20617869Y27854545D01*
X20564632Y27801308D01*
X20506445Y27753555D01*
X20458694Y27695370D01*
X20405455Y27642131D01*
X20363625Y27579528D01*
X20315874Y27521343D01*
X20280392Y27454962D01*
X20238562Y27392358D01*
X20209749Y27322798D01*
X20174267Y27256415D01*
X20152417Y27184384D01*
X20123605Y27114826D01*
X20108917Y27040984D01*
X20087066Y26968951D01*
X20079688Y26894040D01*
X20065000Y26820199D01*
X20065000Y26744910D01*
X20065001Y25271675D01*
X20022131Y25314545D01*
X19772358Y25481438D01*
X19494826Y25596395D01*
X19200199Y25655000D01*
X18899801Y25655000D01*
X18605174Y25596395D01*
X18327642Y25481438D01*
X18077869Y25314545D01*
X17865455Y25102131D01*
X17780000Y24974239D01*
X17694545Y25102131D01*
X17482131Y25314545D01*
X17232358Y25481438D01*
X16954826Y25596395D01*
X16660199Y25655000D01*
X16359801Y25655000D01*
X16065174Y25596395D01*
X15787642Y25481438D01*
X15537869Y25314545D01*
X15325455Y25102131D01*
X15158562Y24852358D01*
X15043605Y24574826D01*
X14985000Y24280199D01*
X12955000Y24280199D01*
X12955000Y34215089D01*
X12962378Y34290000D01*
X12932934Y34588952D01*
X12845733Y34876416D01*
X12704126Y35141344D01*
X12513555Y35373555D01*
X12281344Y35564126D01*
X12016416Y35705733D01*
X11728952Y35792934D01*
X11504911Y35815000D01*
X11430000Y35822378D01*
X11355090Y35815000D01*
X11355089Y35815000D01*
X11131048Y35792934D01*
X10843584Y35705733D01*
X10578656Y35564126D01*
X10346445Y35373555D01*
X10155874Y35141344D01*
X10014267Y34876416D01*
X9927066Y34588952D01*
X9897622Y34290000D01*
X9905001Y34215079D01*
X9905000Y26595090D01*
X9905001Y26595080D01*
X9905001Y25655000D01*
X8815089Y25655000D01*
X8591048Y25632934D01*
X8303584Y25545733D01*
X8038656Y25404126D01*
X7806445Y25213555D01*
X7615874Y24981344D01*
X7474267Y24716416D01*
X7387066Y24428952D01*
X7357622Y24130000D01*
X475000Y24130000D01*
X475000Y58705634D01*
X3547622Y58705634D01*
X3555000Y58630723D01*
X3555000Y57224910D01*
X3555001Y54760204D01*
X3555000Y54760199D01*
X3555000Y54459801D01*
X3555001Y54459796D01*
X3555000Y52144911D01*
X3547622Y52070000D01*
X3577066Y51771048D01*
X3664267Y51483584D01*
X3805874Y51218656D01*
X3988279Y50996395D01*
X3996445Y50986445D01*
X4228656Y50795874D01*
X4493584Y50654267D01*
X4781048Y50567066D01*
X5080000Y50537622D01*
X5154910Y50545000D01*
X9905000Y50545000D01*
X9905000Y49604910D01*
X9905001Y46915089D01*
X9927067Y46691048D01*
X10014268Y46403584D01*
X10155875Y46138656D01*
X10346446Y45906445D01*
X10578657Y45715874D01*
X10843585Y45574267D01*
X11131049Y45487066D01*
X11430000Y45457622D01*
X11728952Y45487066D01*
X12016416Y45574267D01*
X12281344Y45715874D01*
X12513555Y45906445D01*
X12704126Y46138656D01*
X12845733Y46403584D01*
X12932934Y46691048D01*
X12955000Y46915089D01*
X12955000Y49680199D01*
X14985000Y49680199D01*
X14985000Y49379801D01*
X15043605Y49085174D01*
X15158562Y48807642D01*
X15325455Y48557869D01*
X15537869Y48345455D01*
X15787642Y48178562D01*
X16065174Y48063605D01*
X16359801Y48005000D01*
X16660199Y48005000D01*
X16954826Y48063605D01*
X17232358Y48178562D01*
X17482131Y48345455D01*
X17694545Y48557869D01*
X17780000Y48685761D01*
X17865455Y48557869D01*
X18077869Y48345455D01*
X18327642Y48178562D01*
X18605174Y48063605D01*
X18899801Y48005000D01*
X19200199Y48005000D01*
X19494826Y48063605D01*
X19772358Y48178562D01*
X20022131Y48345455D01*
X20234545Y48557869D01*
X20320000Y48685761D01*
X20405455Y48557869D01*
X20617869Y48345455D01*
X20867642Y48178562D01*
X21145174Y48063605D01*
X21439801Y48005000D01*
X21740199Y48005000D01*
X22034826Y48063605D01*
X22312358Y48178562D01*
X22562131Y48345455D01*
X22774545Y48557869D01*
X22860000Y48685761D01*
X22945455Y48557869D01*
X23157869Y48345455D01*
X23407642Y48178562D01*
X23685174Y48063605D01*
X23979801Y48005000D01*
X24280199Y48005000D01*
X24574826Y48063605D01*
X24852358Y48178562D01*
X25102131Y48345455D01*
X25314545Y48557869D01*
X25400000Y48685761D01*
X25485455Y48557869D01*
X25697869Y48345455D01*
X25947642Y48178562D01*
X26225174Y48063605D01*
X26519801Y48005000D01*
X26820199Y48005000D01*
X27114826Y48063605D01*
X27392358Y48178562D01*
X27642131Y48345455D01*
X27854545Y48557869D01*
X27940000Y48685761D01*
X28025455Y48557869D01*
X28237869Y48345455D01*
X28487642Y48178562D01*
X28678387Y48099553D01*
X28718287Y48024906D01*
X28828326Y47890823D01*
X28828329Y47890820D01*
X28865121Y47845989D01*
X28909952Y47809197D01*
X30029197Y46689951D01*
X30065989Y46645120D01*
X30110820Y46608328D01*
X30110822Y46608326D01*
X30199841Y46535270D01*
X30244906Y46498286D01*
X30422080Y46403584D01*
X30449030Y46389179D01*
X30670518Y46321992D01*
X30691876Y46319888D01*
X30843139Y46304990D01*
X30843146Y46304990D01*
X30900858Y46299306D01*
X30958570Y46304990D01*
X35357278Y46304990D01*
X35414990Y46299306D01*
X35472702Y46304990D01*
X35472710Y46304990D01*
X35472801Y46304999D01*
X37897287Y46304999D01*
X37954999Y46299315D01*
X38012711Y46304999D01*
X38012719Y46304999D01*
X38170499Y46320539D01*
X38177016Y46319897D01*
X38328279Y46304999D01*
X38328286Y46304999D01*
X38385998Y46299315D01*
X38443710Y46304999D01*
X42977287Y46304999D01*
X43034999Y46299315D01*
X43092711Y46304999D01*
X43092719Y46304999D01*
X43250499Y46320539D01*
X43257016Y46319897D01*
X43408279Y46304999D01*
X43408286Y46304999D01*
X43465998Y46299315D01*
X43523710Y46304999D01*
X47916289Y46304999D01*
X47974001Y46299315D01*
X48031713Y46304999D01*
X48031721Y46304999D01*
X48204341Y46322001D01*
X48425830Y46389188D01*
X48629954Y46498295D01*
X48808871Y46645129D01*
X48845667Y46689965D01*
X49830041Y47674338D01*
X49874871Y47711129D01*
X50021705Y47890046D01*
X50130812Y48094170D01*
X50142624Y48133109D01*
X50252358Y48178562D01*
X50502131Y48345455D01*
X50714545Y48557869D01*
X50881438Y48807642D01*
X50996395Y49085174D01*
X51055000Y49379801D01*
X51055000Y49680199D01*
X50996395Y49974826D01*
X50881438Y50252358D01*
X50714545Y50502131D01*
X50502131Y50714545D01*
X50252358Y50881438D01*
X49974826Y50996395D01*
X49680199Y51055000D01*
X49379801Y51055000D01*
X49085174Y50996395D01*
X48807642Y50881438D01*
X48557869Y50714545D01*
X48345455Y50502131D01*
X48260000Y50374239D01*
X48174545Y50502131D01*
X47962131Y50714545D01*
X47712358Y50881438D01*
X47434826Y50996395D01*
X47140199Y51055000D01*
X46839801Y51055000D01*
X46545174Y50996395D01*
X46267642Y50881438D01*
X46017869Y50714545D01*
X45975000Y50671676D01*
X45975000Y57150000D01*
X47997622Y57150000D01*
X48005000Y57075090D01*
X48005000Y56999801D01*
X48019688Y56925960D01*
X48027066Y56851048D01*
X48048917Y56779013D01*
X48063605Y56705174D01*
X48092415Y56635619D01*
X48114267Y56563584D01*
X48149751Y56497198D01*
X48178562Y56427642D01*
X48220390Y56365042D01*
X48255874Y56298656D01*
X48303627Y56240468D01*
X48345455Y56177869D01*
X48398692Y56124632D01*
X48446445Y56066445D01*
X48504632Y56018692D01*
X48557869Y55965455D01*
X48620468Y55923627D01*
X48678656Y55875874D01*
X48745042Y55840390D01*
X48807642Y55798562D01*
X48877198Y55769751D01*
X48943584Y55734267D01*
X49015619Y55712415D01*
X49085174Y55683605D01*
X49159013Y55668917D01*
X49231048Y55647066D01*
X49305960Y55639688D01*
X49379801Y55625000D01*
X52144911Y55625000D01*
X52368952Y55647066D01*
X52656416Y55734267D01*
X52921344Y55875874D01*
X53153555Y56066445D01*
X53344126Y56298656D01*
X53485733Y56563584D01*
X53572934Y56851048D01*
X53602378Y57150000D01*
X53572934Y57448952D01*
X53485733Y57736416D01*
X53344126Y58001344D01*
X53153555Y58233555D01*
X52921344Y58424126D01*
X52656416Y58565733D01*
X52368952Y58652934D01*
X52144911Y58675000D01*
X49379801Y58675000D01*
X49305960Y58660312D01*
X49231048Y58652934D01*
X49159013Y58631083D01*
X49085174Y58616395D01*
X49015619Y58587585D01*
X48943584Y58565733D01*
X48877198Y58530249D01*
X48807642Y58501438D01*
X48745042Y58459610D01*
X48678656Y58424126D01*
X48620468Y58376373D01*
X48557869Y58334545D01*
X48504632Y58281308D01*
X48446445Y58233555D01*
X48398692Y58175368D01*
X48345455Y58122131D01*
X48303627Y58059532D01*
X48255874Y58001344D01*
X48220390Y57934958D01*
X48178562Y57872358D01*
X48149751Y57802802D01*
X48114267Y57736416D01*
X48092415Y57664381D01*
X48063605Y57594826D01*
X48048917Y57520987D01*
X48027066Y57448952D01*
X48019688Y57374040D01*
X48005000Y57300199D01*
X48005000Y57224911D01*
X47997622Y57150000D01*
X45975000Y57150000D01*
X45975000Y68325000D01*
X47140199Y68325000D01*
X47214040Y68339688D01*
X47288952Y68347066D01*
X47360987Y68368917D01*
X47434826Y68383605D01*
X47504381Y68412415D01*
X47576416Y68434267D01*
X47642802Y68469751D01*
X47712358Y68498562D01*
X47774958Y68540390D01*
X47841344Y68575874D01*
X47899532Y68623627D01*
X47962131Y68665455D01*
X48015369Y68718693D01*
X48073555Y68766445D01*
X48121308Y68824632D01*
X48174545Y68877869D01*
X48216373Y68940468D01*
X48264126Y68998656D01*
X48299610Y69065042D01*
X48341438Y69127642D01*
X48370249Y69197198D01*
X48405733Y69263584D01*
X48427585Y69335619D01*
X48456395Y69405174D01*
X48471083Y69479013D01*
X48492934Y69551048D01*
X48500312Y69625960D01*
X48515000Y69699801D01*
X48515000Y69775089D01*
X48522378Y69850000D01*
X48515000Y69924911D01*
X48515000Y70000199D01*
X48500312Y70074040D01*
X48492934Y70148952D01*
X48471083Y70220987D01*
X48456395Y70294826D01*
X48427585Y70364381D01*
X48405733Y70436416D01*
X48370249Y70502802D01*
X48341438Y70572358D01*
X48299610Y70634958D01*
X48264126Y70701344D01*
X48216373Y70759532D01*
X48174545Y70822131D01*
X48121308Y70875368D01*
X48073555Y70933555D01*
X48015368Y70981308D01*
X47962131Y71034545D01*
X47899532Y71076373D01*
X47841344Y71124126D01*
X47774958Y71159610D01*
X47712358Y71201438D01*
X47642802Y71230249D01*
X47576416Y71265733D01*
X47504381Y71287585D01*
X47434826Y71316395D01*
X47360987Y71331083D01*
X47288952Y71352934D01*
X47214040Y71360312D01*
X47140199Y71375000D01*
X44524911Y71375000D01*
X44450000Y71382378D01*
X44375090Y71375000D01*
X44299801Y71375000D01*
X44225960Y71360312D01*
X44151048Y71352934D01*
X44079013Y71331083D01*
X44005174Y71316395D01*
X43935619Y71287585D01*
X43863584Y71265733D01*
X43797198Y71230249D01*
X43727642Y71201438D01*
X43665042Y71159610D01*
X43598656Y71124126D01*
X43540468Y71076373D01*
X43477869Y71034545D01*
X43424632Y70981308D01*
X43366445Y70933555D01*
X43318692Y70875368D01*
X43265455Y70822131D01*
X43223627Y70759532D01*
X43175874Y70701344D01*
X43140390Y70634958D01*
X43098562Y70572358D01*
X43069751Y70502802D01*
X43034267Y70436416D01*
X43012415Y70364381D01*
X42983605Y70294826D01*
X42968917Y70220987D01*
X42947066Y70148952D01*
X42939688Y70074040D01*
X42925000Y70000199D01*
X42925000Y69924911D01*
X42917622Y69850000D01*
X42925000Y69775089D01*
X42925000Y69699801D01*
X42925001Y69699796D01*
X42925000Y67384911D01*
X42925000Y67384910D01*
X42925001Y50671675D01*
X42882131Y50714545D01*
X42632358Y50881438D01*
X42354826Y50996395D01*
X42060199Y51055000D01*
X41759801Y51055000D01*
X41465174Y50996395D01*
X41187642Y50881438D01*
X40937869Y50714545D01*
X40725455Y50502131D01*
X40640000Y50374239D01*
X40554545Y50502131D01*
X40342131Y50714545D01*
X40092358Y50881438D01*
X39814826Y50996395D01*
X39520199Y51055000D01*
X39219801Y51055000D01*
X38925174Y50996395D01*
X38647642Y50881438D01*
X38397869Y50714545D01*
X38185455Y50502131D01*
X38100000Y50374239D01*
X38014545Y50502131D01*
X37802131Y50714545D01*
X37552358Y50881438D01*
X37274826Y50996395D01*
X36980199Y51055000D01*
X36679801Y51055000D01*
X36385174Y50996395D01*
X36107642Y50881438D01*
X35857869Y50714545D01*
X35815000Y50671676D01*
X35815000Y52270074D01*
X36585362Y53040435D01*
X36643555Y53088193D01*
X36834126Y53320404D01*
X36975733Y53585332D01*
X37062934Y53872796D01*
X37085000Y54096837D01*
X37092378Y54171747D01*
X37085000Y54246658D01*
X37085000Y76350199D01*
X37070312Y76424040D01*
X37062934Y76498952D01*
X37041083Y76570987D01*
X37026395Y76644826D01*
X36997585Y76714381D01*
X36975733Y76786416D01*
X36940249Y76852802D01*
X36911438Y76922358D01*
X36869610Y76984958D01*
X36834126Y77051344D01*
X36786373Y77109532D01*
X36744545Y77172131D01*
X36691308Y77225368D01*
X36643555Y77283555D01*
X36585370Y77331306D01*
X36532131Y77384545D01*
X36469528Y77426375D01*
X36411343Y77474126D01*
X36344962Y77509608D01*
X36282358Y77551438D01*
X36212798Y77580251D01*
X36146415Y77615733D01*
X36074384Y77637583D01*
X36004826Y77666395D01*
X35930984Y77681083D01*
X35858951Y77702934D01*
X35784040Y77710312D01*
X35710199Y77725000D01*
X35634910Y77725000D01*
X35560000Y77732378D01*
X35485089Y77725000D01*
X35409801Y77725000D01*
X35335960Y77710312D01*
X35261048Y77702934D01*
X35189013Y77681083D01*
X35115174Y77666395D01*
X35045619Y77637585D01*
X34973584Y77615733D01*
X34907198Y77580249D01*
X34837642Y77551438D01*
X34775042Y77509610D01*
X34708656Y77474126D01*
X34650468Y77426373D01*
X34587869Y77384545D01*
X34534632Y77331308D01*
X34476445Y77283555D01*
X34428694Y77225370D01*
X34375455Y77172131D01*
X34333625Y77109528D01*
X34285874Y77051343D01*
X34250392Y76984962D01*
X34208562Y76922358D01*
X34179749Y76852798D01*
X34144267Y76786415D01*
X34122417Y76714384D01*
X34093605Y76644826D01*
X34078917Y76570984D01*
X34057066Y76498951D01*
X34049688Y76424040D01*
X34035000Y76350199D01*
X34035000Y71272135D01*
X33963565Y71359179D01*
X33905367Y71406941D01*
X33166951Y72145357D01*
X33119189Y72203555D01*
X32886978Y72394126D01*
X32622050Y72535733D01*
X32334586Y72622934D01*
X32110545Y72645000D01*
X32035634Y72652378D01*
X31960723Y72645000D01*
X30329801Y72645000D01*
X30255960Y72630312D01*
X30181048Y72622934D01*
X30109013Y72601083D01*
X30035174Y72586395D01*
X29965619Y72557585D01*
X29893584Y72535733D01*
X29827198Y72500249D01*
X29757642Y72471438D01*
X29695042Y72429610D01*
X29628656Y72394126D01*
X29570468Y72346373D01*
X29507869Y72304545D01*
X29454632Y72251308D01*
X29396445Y72203555D01*
X29348692Y72145368D01*
X29295455Y72092131D01*
X29253627Y72029532D01*
X29205874Y71971344D01*
X29170390Y71904958D01*
X29128562Y71842358D01*
X29099751Y71772802D01*
X29064267Y71706416D01*
X29042415Y71634381D01*
X29013605Y71564826D01*
X28998917Y71490987D01*
X28977066Y71418952D01*
X28969688Y71344040D01*
X28955000Y71270199D01*
X28955000Y71194911D01*
X28947622Y71120000D01*
X28955000Y71045089D01*
X28955000Y70969801D01*
X28969688Y70895960D01*
X28977066Y70821048D01*
X28998917Y70749013D01*
X29013605Y70675174D01*
X29042415Y70605619D01*
X29064267Y70533584D01*
X29099751Y70467198D01*
X29128562Y70397642D01*
X29170390Y70335042D01*
X29205874Y70268656D01*
X29253627Y70210468D01*
X29295455Y70147869D01*
X29348691Y70094633D01*
X29396445Y70036445D01*
X29454632Y69988692D01*
X29507869Y69935455D01*
X29570468Y69893627D01*
X29623628Y69850000D01*
X29396445Y69663555D01*
X29205874Y69431343D01*
X29064267Y69166415D01*
X28977066Y68878951D01*
X28955000Y68654910D01*
X28955001Y66887263D01*
X28911048Y66882934D01*
X28623584Y66795733D01*
X28358656Y66654126D01*
X28126445Y66463555D01*
X27935874Y66231344D01*
X27794267Y65966416D01*
X27707066Y65678952D01*
X27677622Y65380000D01*
X27707066Y65081048D01*
X27794267Y64793584D01*
X27935874Y64528656D01*
X28126445Y64296445D01*
X28358656Y64105874D01*
X28623584Y63964267D01*
X28911048Y63877066D01*
X29135089Y63855000D01*
X30554911Y63855000D01*
X30778952Y63877066D01*
X31066416Y63964267D01*
X31331344Y64105874D01*
X31355011Y64125297D01*
X31355010Y55517559D01*
X30724637Y54887185D01*
X30666446Y54839429D01*
X30475875Y54607218D01*
X30437321Y54535089D01*
X30334267Y54342289D01*
X30247066Y54054826D01*
X30217622Y53755874D01*
X30225001Y53680954D01*
X30225000Y50671676D01*
X30182131Y50714545D01*
X29932358Y50881438D01*
X29654826Y50996395D01*
X29360199Y51055000D01*
X29059801Y51055000D01*
X28765174Y50996395D01*
X28487642Y50881438D01*
X28237869Y50714545D01*
X28025455Y50502131D01*
X27940000Y50374239D01*
X27854545Y50502131D01*
X27642131Y50714545D01*
X27392358Y50881438D01*
X27114826Y50996395D01*
X26820199Y51055000D01*
X26519801Y51055000D01*
X26225174Y50996395D01*
X25947642Y50881438D01*
X25697869Y50714545D01*
X25485455Y50502131D01*
X25400000Y50374239D01*
X25314545Y50502131D01*
X25102131Y50714545D01*
X24852358Y50881438D01*
X24574826Y50996395D01*
X24280199Y51055000D01*
X23979801Y51055000D01*
X23685174Y50996395D01*
X23407642Y50881438D01*
X23157869Y50714545D01*
X22945455Y50502131D01*
X22860000Y50374239D01*
X22774545Y50502131D01*
X22562131Y50714545D01*
X22312358Y50881438D01*
X22034826Y50996395D01*
X21740199Y51055000D01*
X21439801Y51055000D01*
X21145174Y50996395D01*
X20867642Y50881438D01*
X20617869Y50714545D01*
X20405455Y50502131D01*
X20320000Y50374239D01*
X20234545Y50502131D01*
X20022131Y50714545D01*
X19772358Y50881438D01*
X19494826Y50996395D01*
X19200199Y51055000D01*
X18899801Y51055000D01*
X18605174Y50996395D01*
X18327642Y50881438D01*
X18077869Y50714545D01*
X17865455Y50502131D01*
X17780000Y50374239D01*
X17694545Y50502131D01*
X17482131Y50714545D01*
X17232358Y50881438D01*
X16954826Y50996395D01*
X16660199Y51055000D01*
X16359801Y51055000D01*
X16065174Y50996395D01*
X15787642Y50881438D01*
X15537869Y50714545D01*
X15325455Y50502131D01*
X15158562Y50252358D01*
X15043605Y49974826D01*
X14985000Y49680199D01*
X12955000Y49680199D01*
X12955000Y51995090D01*
X12962378Y52070000D01*
X12932934Y52368952D01*
X12845733Y52656416D01*
X12704126Y52921344D01*
X12513555Y53153555D01*
X12286372Y53340000D01*
X12513555Y53526445D01*
X12704126Y53758656D01*
X12845733Y54023584D01*
X12932934Y54311048D01*
X12955000Y54535089D01*
X12962378Y54610000D01*
X12955000Y54684911D01*
X12955000Y57300199D01*
X12940312Y57374040D01*
X12932934Y57448952D01*
X12911083Y57520987D01*
X12896395Y57594826D01*
X12867585Y57664381D01*
X12845733Y57736416D01*
X12810249Y57802802D01*
X12781438Y57872358D01*
X12739610Y57934958D01*
X12704126Y58001344D01*
X12656373Y58059532D01*
X12614545Y58122131D01*
X12561308Y58175368D01*
X12513555Y58233555D01*
X12455370Y58281306D01*
X12402131Y58334545D01*
X12339528Y58376375D01*
X12281343Y58424126D01*
X12214962Y58459608D01*
X12152358Y58501438D01*
X12082798Y58530251D01*
X12016415Y58565733D01*
X11944384Y58587583D01*
X11874826Y58616395D01*
X11800984Y58631083D01*
X11728951Y58652934D01*
X11654040Y58660312D01*
X11580199Y58675000D01*
X11504910Y58675000D01*
X11430000Y58682378D01*
X11355089Y58675000D01*
X11279801Y58675000D01*
X11205960Y58660312D01*
X11131048Y58652934D01*
X11059013Y58631083D01*
X10985174Y58616395D01*
X10915619Y58587585D01*
X10843584Y58565733D01*
X10777198Y58530249D01*
X10707642Y58501438D01*
X10645042Y58459610D01*
X10578656Y58424126D01*
X10520468Y58376373D01*
X10457869Y58334545D01*
X10404632Y58281308D01*
X10346445Y58233555D01*
X10298694Y58175370D01*
X10245455Y58122131D01*
X10203625Y58059528D01*
X10155874Y58001343D01*
X10120392Y57934962D01*
X10078562Y57872358D01*
X10049749Y57802798D01*
X10014267Y57736415D01*
X9992417Y57664384D01*
X9963605Y57594826D01*
X9948917Y57520984D01*
X9927066Y57448951D01*
X9919688Y57374040D01*
X9905000Y57300199D01*
X9905000Y56135000D01*
X7469801Y56135000D01*
X7395960Y56120312D01*
X7321048Y56112934D01*
X7249013Y56091083D01*
X7175174Y56076395D01*
X7105619Y56047585D01*
X7033584Y56025733D01*
X6967198Y55990249D01*
X6897642Y55961438D01*
X6835042Y55919610D01*
X6768656Y55884126D01*
X6710468Y55836373D01*
X6647869Y55794545D01*
X6605000Y55751676D01*
X6605000Y58073960D01*
X6696041Y58165000D01*
X7694911Y58165000D01*
X7918952Y58187066D01*
X8206416Y58274267D01*
X8471344Y58415874D01*
X8703555Y58606445D01*
X8894126Y58838656D01*
X9035733Y59103584D01*
X9122934Y59391048D01*
X9152378Y59690000D01*
X9122934Y59988952D01*
X9035733Y60276416D01*
X8894126Y60541344D01*
X8703555Y60773555D01*
X8471344Y60964126D01*
X8206416Y61105733D01*
X7918952Y61192934D01*
X7694911Y61215000D01*
X6139277Y61215000D01*
X6064366Y61222378D01*
X5989455Y61215000D01*
X5765414Y61192934D01*
X5477950Y61105733D01*
X5213022Y60964126D01*
X4980811Y60773555D01*
X4933053Y60715362D01*
X4054638Y59836946D01*
X3996446Y59789189D01*
X3805875Y59556978D01*
X3730184Y59415370D01*
X3664267Y59292049D01*
X3577066Y59004586D01*
X3547622Y58705634D01*
X475000Y58705634D01*
X475000Y77470000D01*
X2282622Y77470000D01*
X2312066Y77171048D01*
X2399267Y76883584D01*
X2540874Y76618656D01*
X2731445Y76386445D01*
X2963656Y76195874D01*
X3228584Y76054267D01*
X3516048Y75967066D01*
X3740089Y75945000D01*
X8635000Y75945000D01*
X8635000Y74779801D01*
X8649688Y74705960D01*
X8657066Y74631048D01*
X8678917Y74559013D01*
X8693605Y74485174D01*
X8722415Y74415619D01*
X8744267Y74343584D01*
X8779750Y74277200D01*
X8808562Y74207642D01*
X8850393Y74145037D01*
X8885875Y74078656D01*
X8933623Y74020475D01*
X8975455Y73957869D01*
X9028698Y73904626D01*
X9076446Y73846445D01*
X9134627Y73798697D01*
X9187869Y73745455D01*
X9250474Y73703624D01*
X9308657Y73655874D01*
X9375038Y73620392D01*
X9437642Y73578562D01*
X9507202Y73549749D01*
X9573585Y73514267D01*
X9645616Y73492417D01*
X9715174Y73463605D01*
X9789016Y73448917D01*
X9861049Y73427066D01*
X9935960Y73419688D01*
X10009801Y73405000D01*
X10085090Y73405000D01*
X10160000Y73397622D01*
X10234911Y73405000D01*
X10310199Y73405000D01*
X10384040Y73419688D01*
X10458952Y73427066D01*
X10530987Y73448917D01*
X10604826Y73463605D01*
X10674381Y73492415D01*
X10746416Y73514267D01*
X10812802Y73549751D01*
X10882358Y73578562D01*
X10944958Y73620390D01*
X11011344Y73655874D01*
X11069532Y73703627D01*
X11132131Y73745455D01*
X11175000Y73788324D01*
X11175000Y73021676D01*
X9528326Y71375000D01*
X7545089Y71375000D01*
X7321048Y71352934D01*
X7033584Y71265733D01*
X6768656Y71124126D01*
X6605000Y70989817D01*
X6605000Y73534323D01*
X6617378Y73660000D01*
X6587934Y73958952D01*
X6500733Y74246416D01*
X6359126Y74511344D01*
X6168555Y74743555D01*
X5936344Y74934126D01*
X5671416Y75075733D01*
X5383952Y75162934D01*
X5159911Y75185000D01*
X5154910Y75185000D01*
X5080000Y75192378D01*
X5005089Y75185000D01*
X3884910Y75185000D01*
X3810000Y75192378D01*
X3511048Y75162934D01*
X3223584Y75075733D01*
X2958656Y74934126D01*
X2726445Y74743555D01*
X2535874Y74511343D01*
X2394267Y74246415D01*
X2307066Y73958951D01*
X2285000Y73734910D01*
X2285000Y73684144D01*
X2282622Y73660000D01*
X2285000Y73635855D01*
X2285001Y67334154D01*
X2282622Y67310000D01*
X2285001Y67285846D01*
X2285001Y67235089D01*
X2307067Y67011048D01*
X2394268Y66723584D01*
X2535875Y66458656D01*
X2726446Y66226445D01*
X2958657Y66035874D01*
X3223585Y65894267D01*
X3511049Y65807066D01*
X3810000Y65777622D01*
X3884911Y65785000D01*
X5005090Y65785000D01*
X5080000Y65777622D01*
X5154911Y65785000D01*
X10288324Y65785000D01*
X10245455Y65742131D01*
X10203627Y65679532D01*
X10155874Y65621344D01*
X10120390Y65554958D01*
X10078562Y65492358D01*
X10049751Y65422802D01*
X10014267Y65356416D01*
X9992415Y65284381D01*
X9963605Y65214826D01*
X9948917Y65140987D01*
X9927066Y65068952D01*
X9919688Y64994040D01*
X9905000Y64920199D01*
X9905000Y64844911D01*
X9897622Y64770000D01*
X9905000Y64695089D01*
X9905000Y64619801D01*
X9919688Y64545960D01*
X9927066Y64471048D01*
X9948917Y64399013D01*
X9963605Y64325174D01*
X9992415Y64255619D01*
X10014267Y64183584D01*
X10049751Y64117198D01*
X10078562Y64047642D01*
X10120390Y63985042D01*
X10155874Y63918656D01*
X10203627Y63860468D01*
X10245455Y63797869D01*
X10298692Y63744632D01*
X10346445Y63686445D01*
X10404632Y63638692D01*
X10457869Y63585455D01*
X10520468Y63543627D01*
X10578656Y63495874D01*
X10645042Y63460390D01*
X10707642Y63418562D01*
X10777198Y63389751D01*
X10843584Y63354267D01*
X10915619Y63332415D01*
X10985174Y63303605D01*
X11059013Y63288917D01*
X11131048Y63267066D01*
X11205960Y63259688D01*
X11279801Y63245000D01*
X16584911Y63245000D01*
X16808952Y63267066D01*
X17096416Y63354267D01*
X17361344Y63495874D01*
X17593555Y63686445D01*
X17784126Y63918656D01*
X17925733Y64183584D01*
X18012934Y64471048D01*
X18042378Y64770000D01*
X18012934Y65068952D01*
X18011099Y65075000D01*
X18012934Y65081048D01*
X18042378Y65380000D01*
X18012934Y65678952D01*
X17925733Y65966416D01*
X17784126Y66231344D01*
X17593555Y66463555D01*
X17361344Y66654126D01*
X17096416Y66795733D01*
X16808952Y66882934D01*
X16584911Y66905000D01*
X15165089Y66905000D01*
X14941048Y66882934D01*
X14653584Y66795733D01*
X14388656Y66654126D01*
X14156445Y66463555D01*
X14018115Y66295000D01*
X12571674Y66295000D01*
X13831307Y67554632D01*
X13974125Y67728656D01*
X14115732Y67993584D01*
X14202934Y68281047D01*
X14232378Y68579999D01*
X14202934Y68878951D01*
X14115732Y69166415D01*
X13974125Y69431343D01*
X13783554Y69663554D01*
X13551343Y69854125D01*
X13286415Y69995732D01*
X12998951Y70082934D01*
X12699999Y70112378D01*
X12565840Y70099165D01*
X13725369Y71258693D01*
X13783555Y71306445D01*
X13831316Y71364642D01*
X14601675Y72135000D01*
X15314911Y72135000D01*
X15538952Y72157066D01*
X15826416Y72244267D01*
X16091344Y72385874D01*
X16323555Y72576445D01*
X16514126Y72808656D01*
X16655733Y73073584D01*
X16742934Y73361048D01*
X16772378Y73660000D01*
X16742934Y73958952D01*
X16655733Y74246416D01*
X16514126Y74511344D01*
X16323555Y74743555D01*
X16091344Y74934126D01*
X15826416Y75075733D01*
X15538952Y75162934D01*
X15314911Y75185000D01*
X14225000Y75185000D01*
X14225000Y78665090D01*
X14232378Y78740000D01*
X14222506Y78840238D01*
X14202934Y79038952D01*
X14115733Y79326416D01*
X13974126Y79591344D01*
X13839817Y79755000D01*
X13895089Y79755000D01*
X13970000Y79747622D01*
X14044910Y79755000D01*
X14044911Y79755000D01*
X14268952Y79777066D01*
X14556416Y79864267D01*
X14821344Y80005874D01*
X15053555Y80196445D01*
X15170005Y80338339D01*
X15286455Y80196445D01*
X15518666Y80005874D01*
X15783594Y79864267D01*
X16071058Y79777066D01*
X16149633Y79769327D01*
X21335000Y74583958D01*
X21335000Y73734910D01*
X21335001Y71270204D01*
X21335000Y71270199D01*
X21335000Y70969801D01*
X21349690Y70895951D01*
X21357067Y70821048D01*
X21378916Y70749023D01*
X21393605Y70675174D01*
X21422419Y70605610D01*
X21444268Y70533584D01*
X21479748Y70467206D01*
X21508562Y70397642D01*
X21550395Y70335035D01*
X21585875Y70268656D01*
X21633623Y70210475D01*
X21675455Y70147869D01*
X21728698Y70094626D01*
X21776446Y70036445D01*
X21834627Y69988697D01*
X21887869Y69935455D01*
X21950474Y69893624D01*
X22008657Y69845874D01*
X22075038Y69810392D01*
X22137642Y69768562D01*
X22207202Y69739749D01*
X22273585Y69704267D01*
X22345616Y69682417D01*
X22415174Y69653605D01*
X22489016Y69638917D01*
X22561049Y69617066D01*
X22635960Y69609688D01*
X22709801Y69595000D01*
X22785090Y69595000D01*
X22860000Y69587622D01*
X22934911Y69595000D01*
X23010199Y69595000D01*
X23084040Y69609688D01*
X23158952Y69617066D01*
X23230987Y69638917D01*
X23304826Y69653605D01*
X23374381Y69682415D01*
X23446416Y69704267D01*
X23512802Y69739751D01*
X23582358Y69768562D01*
X23644958Y69810390D01*
X23711344Y69845874D01*
X23769532Y69893627D01*
X23832131Y69935455D01*
X23885368Y69988692D01*
X23943555Y70036445D01*
X23991309Y70094633D01*
X24044545Y70147869D01*
X24086373Y70210468D01*
X24134126Y70268656D01*
X24169610Y70335042D01*
X24211438Y70397642D01*
X24240249Y70467198D01*
X24275733Y70533584D01*
X24297585Y70605619D01*
X24326395Y70675174D01*
X24341083Y70749013D01*
X24362934Y70821048D01*
X24370312Y70895960D01*
X24385000Y70969801D01*
X24385000Y75140723D01*
X24392378Y75215634D01*
X24362934Y75514586D01*
X24275733Y75802050D01*
X24134126Y76066978D01*
X23991308Y76241002D01*
X23943555Y76299189D01*
X23885368Y76346942D01*
X17926951Y82305357D01*
X17895010Y82344277D01*
X17895010Y83201155D01*
X17932898Y83272038D01*
X18014381Y83540651D01*
X18041894Y83820000D01*
X18014381Y84099349D01*
X17932898Y84367962D01*
X17800576Y84615518D01*
X17622502Y84832502D01*
X17405518Y85010576D01*
X17157962Y85142898D01*
X16889349Y85224381D01*
X16679997Y85245000D01*
X16340003Y85245000D01*
X16130651Y85224381D01*
X15862038Y85142898D01*
X15614482Y85010576D01*
X15596221Y84995589D01*
X15518667Y84954136D01*
X15286456Y84763565D01*
X15227449Y84691665D01*
X15053555Y84903555D01*
X14821344Y85094126D01*
X14556416Y85235733D01*
X14268952Y85322934D01*
X13970000Y85352378D01*
X13671049Y85322934D01*
X13383585Y85235733D01*
X13118657Y85094126D01*
X12886446Y84903555D01*
X12695875Y84671344D01*
X12554268Y84406416D01*
X12467067Y84118952D01*
X12445001Y83894911D01*
X12445001Y83890007D01*
X12438106Y83820000D01*
X12445001Y83749993D01*
X12445001Y82805000D01*
X10234911Y82805000D01*
X10160000Y82812378D01*
X10085090Y82805000D01*
X10085089Y82805000D01*
X9861048Y82782934D01*
X9573584Y82695733D01*
X9308656Y82554126D01*
X9076445Y82363555D01*
X8885874Y82131344D01*
X8744267Y81866416D01*
X8657066Y81578952D01*
X8627622Y81280000D01*
X8635001Y81205080D01*
X8635000Y78995000D01*
X3740089Y78995000D01*
X3516048Y78972934D01*
X3228584Y78885733D01*
X2963656Y78744126D01*
X2731445Y78553555D01*
X2540874Y78321344D01*
X2399267Y78056416D01*
X2312066Y77768952D01*
X2282622Y77470000D01*
X475000Y77470000D01*
X475000Y86559445D01*
X1785000Y86559445D01*
X1785000Y86160555D01*
X1862820Y85769329D01*
X2015468Y85400803D01*
X2237080Y85069138D01*
X2519138Y84787080D01*
X2850803Y84565468D01*
X3219329Y84412820D01*
X3610555Y84335000D01*
X4009445Y84335000D01*
X4400671Y84412820D01*
X4769197Y84565468D01*
X5100862Y84787080D01*
X5382920Y85069138D01*
X5604532Y85400803D01*
X5757180Y85769329D01*
X5835000Y86160555D01*
X5835000Y86559445D01*
X5757180Y86950671D01*
X5604532Y87319197D01*
X5382920Y87650862D01*
X5203870Y87829912D01*
X26415000Y87829912D01*
X26415000Y86410091D01*
X26415001Y86410082D01*
X26415000Y76350199D01*
X26415000Y76049801D01*
X26429688Y75975960D01*
X26437066Y75901049D01*
X26458917Y75829016D01*
X26473605Y75755174D01*
X26502417Y75685616D01*
X26524267Y75613585D01*
X26559749Y75547202D01*
X26588562Y75477642D01*
X26630392Y75415038D01*
X26665874Y75348657D01*
X26713625Y75290472D01*
X26755455Y75227869D01*
X26808694Y75174630D01*
X26856445Y75116445D01*
X26914632Y75068692D01*
X26967869Y75015455D01*
X27030468Y74973627D01*
X27088656Y74925874D01*
X27155042Y74890390D01*
X27217642Y74848562D01*
X27287198Y74819751D01*
X27353584Y74784267D01*
X27425619Y74762415D01*
X27495174Y74733605D01*
X27569013Y74718917D01*
X27641048Y74697066D01*
X27715960Y74689688D01*
X27789801Y74675000D01*
X27865089Y74675000D01*
X27940000Y74667622D01*
X28014910Y74675000D01*
X28090199Y74675000D01*
X28164040Y74689688D01*
X28238951Y74697066D01*
X28310984Y74718917D01*
X28384826Y74733605D01*
X28454384Y74762417D01*
X28526415Y74784267D01*
X28592798Y74819749D01*
X28662358Y74848562D01*
X28724962Y74890392D01*
X28791343Y74925874D01*
X28849528Y74973625D01*
X28912131Y75015455D01*
X28965370Y75068694D01*
X29023555Y75116445D01*
X29071308Y75174632D01*
X29124545Y75227869D01*
X29166373Y75290468D01*
X29214126Y75348656D01*
X29249610Y75415042D01*
X29291438Y75477642D01*
X29320249Y75547198D01*
X29355733Y75613584D01*
X29377585Y75685619D01*
X29406395Y75755174D01*
X29421083Y75829013D01*
X29442934Y75901048D01*
X29450312Y75975960D01*
X29465000Y76049801D01*
X29465000Y78740000D01*
X30217622Y78740000D01*
X30247066Y78441048D01*
X30334267Y78153584D01*
X30475874Y77888656D01*
X30666445Y77656445D01*
X30898656Y77465874D01*
X31163584Y77324267D01*
X31451048Y77237066D01*
X31675089Y77215000D01*
X31675090Y77215000D01*
X31750000Y77207622D01*
X32048952Y77237066D01*
X32336416Y77324267D01*
X32601344Y77465874D01*
X32833555Y77656445D01*
X33024126Y77888656D01*
X33165733Y78153584D01*
X33252934Y78441048D01*
X33275000Y78665089D01*
X33275000Y78665090D01*
X33282378Y78740000D01*
X33275000Y78814911D01*
X33275000Y80010000D01*
X40377622Y80010000D01*
X40385000Y79935090D01*
X40407066Y79711049D01*
X40494267Y79423585D01*
X40635874Y79158657D01*
X40826445Y78926445D01*
X40884642Y78878684D01*
X43265455Y76497869D01*
X43477869Y76285455D01*
X43540469Y76243627D01*
X43598655Y76195875D01*
X43665038Y76160393D01*
X43727642Y76118562D01*
X43797205Y76089748D01*
X43863584Y76054268D01*
X43935611Y76032419D01*
X44005174Y76003605D01*
X44079021Y75988916D01*
X44151047Y75967067D01*
X44225951Y75959690D01*
X44299801Y75945000D01*
X44375099Y75945000D01*
X44449999Y75937623D01*
X44524899Y75945000D01*
X44600199Y75945000D01*
X44674051Y75959690D01*
X44748951Y75967067D01*
X44820974Y75988915D01*
X44894826Y76003605D01*
X44964393Y76032420D01*
X45036415Y76054268D01*
X45102789Y76089746D01*
X45172358Y76118562D01*
X45234969Y76160397D01*
X45301343Y76195875D01*
X45359520Y76243619D01*
X45422131Y76285455D01*
X45475379Y76338703D01*
X45533554Y76386446D01*
X45581297Y76444621D01*
X45634545Y76497869D01*
X45676381Y76560480D01*
X45724125Y76618657D01*
X45759603Y76685031D01*
X45801438Y76747642D01*
X45830254Y76817211D01*
X45865732Y76883585D01*
X45887580Y76955607D01*
X45916395Y77025174D01*
X45931085Y77099026D01*
X45952933Y77171049D01*
X45960310Y77245949D01*
X45975000Y77319801D01*
X45975000Y77395101D01*
X45982377Y77470001D01*
X45975000Y77544901D01*
X45975000Y77620199D01*
X45960310Y77694049D01*
X45952933Y77768953D01*
X45931084Y77840979D01*
X45916395Y77914826D01*
X45887581Y77984389D01*
X45865732Y78056416D01*
X45830252Y78122795D01*
X45801438Y78192358D01*
X45759607Y78254962D01*
X45724125Y78321345D01*
X45676373Y78379531D01*
X45634545Y78442131D01*
X45422131Y78654545D01*
X43435000Y80641674D01*
X43435000Y85090000D01*
X44187622Y85090000D01*
X44217066Y84791048D01*
X44304267Y84503585D01*
X44304268Y84503584D01*
X44445875Y84238656D01*
X44636446Y84006445D01*
X44694638Y83958688D01*
X50545000Y78108325D01*
X50545000Y77544911D01*
X50537622Y77470000D01*
X50545000Y77395089D01*
X50551445Y77329650D01*
X50567066Y77171048D01*
X50654267Y76883584D01*
X50795874Y76618656D01*
X50986445Y76386445D01*
X51218656Y76195874D01*
X51483584Y76054267D01*
X51771048Y75967066D01*
X51995089Y75945000D01*
X51995090Y75945000D01*
X52070000Y75937622D01*
X52368952Y75967066D01*
X52656416Y76054267D01*
X52921344Y76195874D01*
X53153555Y76386445D01*
X53344126Y76618656D01*
X53485733Y76883584D01*
X53572934Y77171048D01*
X53595000Y77395089D01*
X53602378Y77470000D01*
X53595000Y77544911D01*
X53595000Y78665090D01*
X53602378Y78740001D01*
X53572934Y79038953D01*
X53485733Y79326416D01*
X53344126Y79591344D01*
X53153555Y79823555D01*
X53095364Y79871311D01*
X47245000Y85721674D01*
X47245000Y86559445D01*
X55125000Y86559445D01*
X55125000Y86160555D01*
X55202820Y85769329D01*
X55355468Y85400803D01*
X55577080Y85069138D01*
X55859138Y84787080D01*
X56190803Y84565468D01*
X56559329Y84412820D01*
X56950555Y84335000D01*
X57349445Y84335000D01*
X57740671Y84412820D01*
X58109197Y84565468D01*
X58440862Y84787080D01*
X58722920Y85069138D01*
X58944532Y85400803D01*
X59097180Y85769329D01*
X59175000Y86160555D01*
X59175000Y86559445D01*
X59097180Y86950671D01*
X58944532Y87319197D01*
X58722920Y87650862D01*
X58440862Y87932920D01*
X58109197Y88154532D01*
X57740671Y88307180D01*
X57349445Y88385000D01*
X56950555Y88385000D01*
X56559329Y88307180D01*
X56190803Y88154532D01*
X55859138Y87932920D01*
X55577080Y87650862D01*
X55355468Y87319197D01*
X55202820Y86950671D01*
X55125000Y86559445D01*
X47245000Y86559445D01*
X47245000Y87829912D01*
X47222934Y88053953D01*
X47135733Y88341417D01*
X46994126Y88606345D01*
X46803555Y88838556D01*
X46571344Y89029127D01*
X46306416Y89170734D01*
X46018952Y89257935D01*
X45720000Y89287379D01*
X45421049Y89257935D01*
X45133585Y89170734D01*
X44868657Y89029127D01*
X44636446Y88838556D01*
X44445875Y88606345D01*
X44304267Y88341417D01*
X44217066Y88053953D01*
X44195000Y87829912D01*
X44195000Y86410091D01*
X44195001Y86410086D01*
X44195001Y85164920D01*
X44187622Y85090000D01*
X43435000Y85090000D01*
X43435000Y87829912D01*
X43412934Y88053953D01*
X43325733Y88341417D01*
X43184126Y88606345D01*
X42993555Y88838556D01*
X42761344Y89029127D01*
X42496416Y89170734D01*
X42208952Y89257935D01*
X41910000Y89287379D01*
X41611049Y89257935D01*
X41323585Y89170734D01*
X41058657Y89029127D01*
X40826446Y88838556D01*
X40635875Y88606345D01*
X40494267Y88341417D01*
X40407066Y88053953D01*
X40385000Y87829912D01*
X40385000Y86410091D01*
X40385001Y86410083D01*
X40385000Y80084911D01*
X40377622Y80010000D01*
X33275000Y80010000D01*
X33275000Y87829912D01*
X33252934Y88053953D01*
X33165733Y88341417D01*
X33024126Y88606345D01*
X32833555Y88838556D01*
X32601344Y89029127D01*
X32336416Y89170734D01*
X32048952Y89257935D01*
X31750000Y89287379D01*
X31451049Y89257935D01*
X31163585Y89170734D01*
X30898657Y89029127D01*
X30666446Y88838556D01*
X30475875Y88606345D01*
X30334267Y88341417D01*
X30247066Y88053953D01*
X30225000Y87829912D01*
X30225000Y87824911D01*
X30225001Y78814921D01*
X30217622Y78740000D01*
X29465000Y78740000D01*
X29465000Y87829912D01*
X29442934Y88053953D01*
X29355733Y88341417D01*
X29214126Y88606345D01*
X29023555Y88838556D01*
X28791344Y89029127D01*
X28526416Y89170734D01*
X28238952Y89257935D01*
X27940000Y89287379D01*
X27641049Y89257935D01*
X27353585Y89170734D01*
X27088657Y89029127D01*
X26856446Y88838556D01*
X26665875Y88606345D01*
X26524267Y88341417D01*
X26437066Y88053953D01*
X26415000Y87829912D01*
X5203870Y87829912D01*
X5100862Y87932920D01*
X4769197Y88154532D01*
X4400671Y88307180D01*
X4009445Y88385000D01*
X3610555Y88385000D01*
X3219329Y88307180D01*
X2850803Y88154532D01*
X2519138Y87932920D01*
X2237080Y87650862D01*
X2015468Y87319197D01*
X1862820Y86950671D01*
X1785000Y86559445D01*
X475000Y86559445D01*
X475000Y89695000D01*
X2516668Y89695000D01*
X2540000Y89692702D01*
X2563332Y89695000D01*
X2633116Y89701873D01*
X2722654Y89729034D01*
X2805173Y89773141D01*
X2877501Y89832499D01*
X2936859Y89904827D01*
X2980966Y89987346D01*
X3008127Y90076884D01*
X3017298Y90170000D01*
X3015000Y90193332D01*
X3015000Y92235000D01*
X57945001Y92235000D01*
X57945000Y90193332D01*
G37*
X57945000Y90193332D02*
X57942702Y90170000D01*
X57951873Y90076884D01*
X57979034Y89987346D01*
X58023141Y89904827D01*
X58082499Y89832499D01*
X58154827Y89773141D01*
X58237346Y89729034D01*
X58326884Y89701873D01*
X58420000Y89692702D01*
X58443332Y89695000D01*
X60485001Y89695000D01*
X60485000Y475000D01*
X475000Y475000D01*
X475000Y4009445D01*
X1785000Y4009445D01*
X1785000Y3610555D01*
X1862820Y3219329D01*
X2015468Y2850803D01*
X2237080Y2519138D01*
X2519138Y2237080D01*
X2850803Y2015468D01*
X3219329Y1862820D01*
X3610555Y1785000D01*
X4009445Y1785000D01*
X4400671Y1862820D01*
X4769197Y2015468D01*
X5100862Y2237080D01*
X5382920Y2519138D01*
X5604532Y2850803D01*
X5757180Y3219329D01*
X5835000Y3610555D01*
X5835000Y4009445D01*
X5757180Y4400671D01*
X5604532Y4769197D01*
X5382920Y5100862D01*
X5100862Y5382920D01*
X4769197Y5604532D01*
X4400671Y5757180D01*
X4009445Y5835000D01*
X3610555Y5835000D01*
X3219329Y5757180D01*
X2850803Y5604532D01*
X2519138Y5382920D01*
X2237080Y5100862D01*
X2015468Y4769197D01*
X1862820Y4400671D01*
X1785000Y4009445D01*
X475000Y4009445D01*
X475000Y17780000D01*
X2282622Y17780000D01*
X2312066Y17481048D01*
X2399267Y17193584D01*
X2540874Y16928656D01*
X2731445Y16696445D01*
X2963656Y16505874D01*
X3228584Y16364267D01*
X3516048Y16277066D01*
X3740089Y16255000D01*
X4448326Y16255000D01*
X5213614Y15489711D01*
X5159911Y15495000D01*
X5154911Y15495000D01*
X5080000Y15502378D01*
X5005089Y15495000D01*
X3740089Y15495000D01*
X3516048Y15472934D01*
X3228584Y15385733D01*
X2963656Y15244126D01*
X2731445Y15053555D01*
X2540874Y14821344D01*
X2399267Y14556416D01*
X2312066Y14268952D01*
X2282622Y13970000D01*
X2312066Y13671048D01*
X2399267Y13383584D01*
X2540874Y13118656D01*
X2731445Y12886445D01*
X2963656Y12695874D01*
X3228584Y12554267D01*
X3516048Y12467066D01*
X3740089Y12445000D01*
X4448326Y12445000D01*
X5218687Y11674638D01*
X5266445Y11616445D01*
X5498656Y11425874D01*
X5763584Y11284267D01*
X5984142Y11217362D01*
X6051047Y11197066D01*
X6349999Y11167622D01*
X6424910Y11175000D01*
X7750183Y11175000D01*
X7615874Y11011344D01*
X7474267Y10746416D01*
X7387066Y10458952D01*
X7357622Y10160000D01*
X7387066Y9861048D01*
X7474267Y9573584D01*
X7615874Y9308656D01*
X7806445Y9076445D01*
X8038656Y8885874D01*
X8303584Y8744267D01*
X8591048Y8657066D01*
X8815089Y8635000D01*
X11990199Y8635000D01*
X12064040Y8649688D01*
X12138952Y8657066D01*
X12210987Y8678917D01*
X12284826Y8693605D01*
X12354381Y8722415D01*
X12426416Y8744267D01*
X12492802Y8779751D01*
X12562358Y8808562D01*
X12624958Y8850390D01*
X12691344Y8885874D01*
X12749532Y8933627D01*
X12812131Y8975455D01*
X12865368Y9028692D01*
X12923555Y9076445D01*
X12971308Y9134632D01*
X13024545Y9187869D01*
X13066373Y9250468D01*
X13114126Y9308656D01*
X13149610Y9375042D01*
X13191438Y9437642D01*
X13220249Y9507198D01*
X13255733Y9573584D01*
X13277585Y9645619D01*
X13306395Y9715174D01*
X13321083Y9789013D01*
X13342934Y9861048D01*
X13345935Y9891517D01*
X16255001Y6982450D01*
X16255000Y3960199D01*
X16255000Y3659801D01*
X16269688Y3585960D01*
X16277066Y3511049D01*
X16298917Y3439016D01*
X16313605Y3365174D01*
X16342417Y3295616D01*
X16364267Y3223585D01*
X16399749Y3157202D01*
X16428562Y3087642D01*
X16470392Y3025038D01*
X16505874Y2958657D01*
X16553625Y2900472D01*
X16595455Y2837869D01*
X16648694Y2784630D01*
X16696445Y2726445D01*
X16754631Y2678693D01*
X16807869Y2625455D01*
X16870468Y2583627D01*
X16928656Y2535874D01*
X16995042Y2500390D01*
X17057642Y2458562D01*
X17127198Y2429751D01*
X17193584Y2394267D01*
X17265619Y2372415D01*
X17335174Y2343605D01*
X17409013Y2328917D01*
X17481048Y2307066D01*
X17555960Y2299688D01*
X17629801Y2285000D01*
X17705089Y2285000D01*
X17780000Y2277622D01*
X17854910Y2285000D01*
X17930199Y2285000D01*
X18004040Y2299688D01*
X18078951Y2307066D01*
X18150984Y2328917D01*
X18224826Y2343605D01*
X18294384Y2372417D01*
X18366415Y2394267D01*
X18432798Y2429749D01*
X18502358Y2458562D01*
X18564962Y2500392D01*
X18631343Y2535874D01*
X18689528Y2583625D01*
X18752131Y2625455D01*
X18805370Y2678694D01*
X18863555Y2726445D01*
X18911308Y2784632D01*
X18964545Y2837869D01*
X19006373Y2900468D01*
X19050000Y2953628D01*
X19093627Y2900468D01*
X19135455Y2837869D01*
X19188692Y2784632D01*
X19236445Y2726445D01*
X19294631Y2678693D01*
X19347869Y2625455D01*
X19410468Y2583627D01*
X19468656Y2535874D01*
X19535042Y2500390D01*
X19597642Y2458562D01*
X19667198Y2429751D01*
X19733584Y2394267D01*
X19805619Y2372415D01*
X19875174Y2343605D01*
X19949013Y2328917D01*
X20021048Y2307066D01*
X20095960Y2299688D01*
X20169801Y2285000D01*
X23010199Y2285000D01*
X23084040Y2299688D01*
X23158952Y2307066D01*
X23230987Y2328917D01*
X23304826Y2343605D01*
X23374381Y2372415D01*
X23446416Y2394267D01*
X23512802Y2429751D01*
X23582358Y2458562D01*
X23644958Y2500390D01*
X23711344Y2535874D01*
X23769532Y2583627D01*
X23832131Y2625455D01*
X23885369Y2678693D01*
X23943555Y2726445D01*
X23991308Y2784632D01*
X24044545Y2837869D01*
X24086373Y2900468D01*
X24134126Y2958656D01*
X24169610Y3025042D01*
X24211438Y3087642D01*
X24240249Y3157198D01*
X24275733Y3223584D01*
X24297585Y3295619D01*
X24326395Y3365174D01*
X24341083Y3439013D01*
X24362934Y3511048D01*
X24370312Y3585960D01*
X24385000Y3659801D01*
X24385000Y3735090D01*
X24392378Y3810000D01*
X24385000Y3884911D01*
X24385000Y3960199D01*
X24370312Y4034040D01*
X24362934Y4108952D01*
X24341083Y4180987D01*
X24326395Y4254826D01*
X24297585Y4324381D01*
X24275733Y4396416D01*
X24240249Y4462802D01*
X24211438Y4532358D01*
X24169610Y4594958D01*
X24134126Y4661344D01*
X24086373Y4719532D01*
X24044545Y4782131D01*
X24001676Y4825000D01*
X27308326Y4825000D01*
X29295455Y2837869D01*
X29507869Y2625455D01*
X29570469Y2583627D01*
X29628655Y2535875D01*
X29695038Y2500393D01*
X29757642Y2458562D01*
X29827205Y2429748D01*
X29893584Y2394268D01*
X29965611Y2372419D01*
X30035174Y2343605D01*
X30109021Y2328916D01*
X30181047Y2307067D01*
X30255951Y2299690D01*
X30329801Y2285000D01*
X30405099Y2285000D01*
X30479999Y2277623D01*
X30554899Y2285000D01*
X30630199Y2285000D01*
X30704051Y2299690D01*
X30778951Y2307067D01*
X30850974Y2328915D01*
X30924826Y2343605D01*
X30994393Y2372420D01*
X31066415Y2394268D01*
X31132789Y2429746D01*
X31202358Y2458562D01*
X31264969Y2500397D01*
X31331343Y2535875D01*
X31389520Y2583619D01*
X31452131Y2625455D01*
X31505379Y2678703D01*
X31563554Y2726446D01*
X31611297Y2784621D01*
X31664545Y2837869D01*
X31706381Y2900480D01*
X31754125Y2958657D01*
X31789603Y3025031D01*
X31831438Y3087642D01*
X31860254Y3157211D01*
X31895732Y3223585D01*
X31917580Y3295607D01*
X31946395Y3365174D01*
X31961085Y3439026D01*
X31982933Y3511049D01*
X31990310Y3585949D01*
X32005000Y3659801D01*
X32005000Y3735101D01*
X32012377Y3810001D01*
X32005000Y3884901D01*
X32005000Y3960199D01*
X31995205Y4009445D01*
X55125000Y4009445D01*
X55125000Y3610555D01*
X55202820Y3219329D01*
X55355468Y2850803D01*
X55577080Y2519138D01*
X55859138Y2237080D01*
X56190803Y2015468D01*
X56559329Y1862820D01*
X56950555Y1785000D01*
X57349445Y1785000D01*
X57740671Y1862820D01*
X58109197Y2015468D01*
X58440862Y2237080D01*
X58722920Y2519138D01*
X58944532Y2850803D01*
X59097180Y3219329D01*
X59175000Y3610555D01*
X59175000Y4009445D01*
X59097180Y4400671D01*
X58944532Y4769197D01*
X58722920Y5100862D01*
X58440862Y5382920D01*
X58109197Y5604532D01*
X57740671Y5757180D01*
X57349445Y5835000D01*
X56950555Y5835000D01*
X56559329Y5757180D01*
X56190803Y5604532D01*
X55859138Y5382920D01*
X55577080Y5100862D01*
X55355468Y4769197D01*
X55202820Y4400671D01*
X55125000Y4009445D01*
X31995205Y4009445D01*
X31990310Y4034049D01*
X31982933Y4108953D01*
X31961084Y4180979D01*
X31946395Y4254826D01*
X31917581Y4324389D01*
X31895732Y4396416D01*
X31860252Y4462795D01*
X31831438Y4532358D01*
X31789607Y4594962D01*
X31754125Y4661345D01*
X31706373Y4719531D01*
X31664545Y4782131D01*
X31452131Y4994545D01*
X29071316Y7375358D01*
X29023555Y7433555D01*
X28791344Y7624126D01*
X28526416Y7765733D01*
X28238952Y7852934D01*
X28014911Y7875000D01*
X27940000Y7882378D01*
X27865089Y7875000D01*
X21705009Y7875000D01*
X21705008Y8533324D01*
X21712387Y8608243D01*
X21682943Y8907195D01*
X21595742Y9194659D01*
X21454135Y9459587D01*
X21311317Y9633611D01*
X21311311Y9633617D01*
X21263563Y9691798D01*
X21205382Y9739546D01*
X14679569Y16265357D01*
X14631807Y16323555D01*
X14399596Y16514126D01*
X14134668Y16655733D01*
X13847204Y16742934D01*
X13623163Y16765000D01*
X13548252Y16772378D01*
X13473341Y16765000D01*
X8251676Y16765000D01*
X6239199Y18777475D01*
X6168555Y18863555D01*
X5936344Y19054126D01*
X5671416Y19195733D01*
X5383952Y19282934D01*
X5159911Y19305000D01*
X5154911Y19305000D01*
X5080000Y19312378D01*
X5005089Y19305000D01*
X3740089Y19305000D01*
X3516048Y19282934D01*
X3228584Y19195733D01*
X2963656Y19054126D01*
X2731445Y18863555D01*
X2540874Y18631344D01*
X2399267Y18366416D01*
X2312066Y18078952D01*
X2282622Y17780000D01*
X475000Y17780000D01*
X475000Y24130000D01*
X7357622Y24130000D01*
X7387066Y23831048D01*
X7474267Y23543584D01*
X7615874Y23278656D01*
X7806445Y23046445D01*
X8038656Y22855874D01*
X8303584Y22714267D01*
X8591048Y22627066D01*
X8815089Y22605000D01*
X11355089Y22605000D01*
X11430000Y22597622D01*
X11504910Y22605000D01*
X11580199Y22605000D01*
X11654040Y22619688D01*
X11728952Y22627066D01*
X11800987Y22648917D01*
X11874826Y22663605D01*
X11944381Y22692415D01*
X12016416Y22714267D01*
X12082802Y22749751D01*
X12152358Y22778562D01*
X12214958Y22820390D01*
X12281344Y22855874D01*
X12339532Y22903627D01*
X12402131Y22945455D01*
X12455368Y22998692D01*
X12513555Y23046445D01*
X12561308Y23104632D01*
X12614545Y23157869D01*
X12656373Y23220468D01*
X12704126Y23278656D01*
X12739610Y23345042D01*
X12781438Y23407642D01*
X12810249Y23477198D01*
X12845733Y23543584D01*
X12867585Y23615619D01*
X12896395Y23685174D01*
X12911083Y23759013D01*
X12932934Y23831048D01*
X12940312Y23905960D01*
X12955000Y23979801D01*
X12955000Y24055090D01*
X12962378Y24130000D01*
X12955000Y24204911D01*
X12955000Y24280199D01*
X14985000Y24280199D01*
X14985000Y23979801D01*
X15043605Y23685174D01*
X15158562Y23407642D01*
X15325455Y23157869D01*
X15537869Y22945455D01*
X15787642Y22778562D01*
X16065174Y22663605D01*
X16359801Y22605000D01*
X16660199Y22605000D01*
X16954826Y22663605D01*
X17232358Y22778562D01*
X17482131Y22945455D01*
X17694545Y23157869D01*
X17780000Y23285761D01*
X17865455Y23157869D01*
X18077869Y22945455D01*
X18327642Y22778562D01*
X18605174Y22663605D01*
X18899801Y22605000D01*
X19200199Y22605000D01*
X19494826Y22663605D01*
X19772358Y22778562D01*
X20022131Y22945455D01*
X20065000Y22988324D01*
X20065001Y20394920D01*
X20057622Y20320000D01*
X20087066Y20021048D01*
X20174267Y19733585D01*
X20174268Y19733584D01*
X20315875Y19468656D01*
X20506446Y19236445D01*
X20564638Y19188688D01*
X22998691Y16754633D01*
X23046445Y16696445D01*
X23278656Y16505874D01*
X23543584Y16364267D01*
X23764142Y16297362D01*
X23831047Y16277066D01*
X24129999Y16247622D01*
X24204910Y16255000D01*
X24204911Y16255000D01*
X24428952Y16277066D01*
X24716416Y16364267D01*
X24981344Y16505874D01*
X25213555Y16696445D01*
X25404126Y16928656D01*
X25545733Y17193584D01*
X25632934Y17481048D01*
X25662378Y17780000D01*
X25634936Y18058630D01*
X26873808Y16819757D01*
X26921565Y16761565D01*
X26979761Y16713805D01*
X29092154Y14601411D01*
X29205874Y14388656D01*
X29396445Y14156445D01*
X29628656Y13965874D01*
X29893584Y13824267D01*
X30181048Y13737066D01*
X30405089Y13715000D01*
X47628326Y13715000D01*
X49275000Y12068324D01*
X49275000Y11219277D01*
X49267622Y11144366D01*
X49297066Y10845414D01*
X49384267Y10557951D01*
X49450184Y10434630D01*
X49525875Y10293022D01*
X49716446Y10060811D01*
X49774638Y10013054D01*
X50653053Y9134638D01*
X50700811Y9076445D01*
X50933022Y8885874D01*
X51197950Y8744267D01*
X51485414Y8657066D01*
X51663827Y8639494D01*
X51784366Y8627622D01*
X51859277Y8635000D01*
X53490199Y8635000D01*
X53564040Y8649688D01*
X53638952Y8657066D01*
X53710987Y8678917D01*
X53784826Y8693605D01*
X53854381Y8722415D01*
X53926416Y8744267D01*
X53992802Y8779751D01*
X54062358Y8808562D01*
X54124958Y8850390D01*
X54191344Y8885874D01*
X54249532Y8933627D01*
X54312131Y8975455D01*
X54365368Y9028692D01*
X54423555Y9076445D01*
X54471308Y9134632D01*
X54524545Y9187869D01*
X54566373Y9250468D01*
X54614126Y9308656D01*
X54649610Y9375042D01*
X54691438Y9437642D01*
X54720249Y9507198D01*
X54755733Y9573584D01*
X54777585Y9645619D01*
X54806395Y9715174D01*
X54821083Y9789013D01*
X54842934Y9861048D01*
X54850312Y9935960D01*
X54865000Y10009801D01*
X54865000Y10085089D01*
X54872378Y10160000D01*
X54865000Y10234911D01*
X54865000Y10310199D01*
X54850312Y10384040D01*
X54842934Y10458952D01*
X54821083Y10530987D01*
X54806395Y10604826D01*
X54777585Y10674381D01*
X54755733Y10746416D01*
X54720249Y10812802D01*
X54691438Y10882358D01*
X54649610Y10944958D01*
X54614126Y11011344D01*
X54566373Y11069532D01*
X54524545Y11132131D01*
X54471308Y11185368D01*
X54423555Y11243555D01*
X54365368Y11291308D01*
X54312131Y11344545D01*
X54249532Y11386373D01*
X54196372Y11430000D01*
X54249532Y11473627D01*
X54312131Y11515455D01*
X54365369Y11568693D01*
X54423555Y11616445D01*
X54471309Y11674633D01*
X54524545Y11727869D01*
X54566373Y11790468D01*
X54614126Y11848656D01*
X54649610Y11915042D01*
X54691438Y11977642D01*
X54720249Y12047198D01*
X54755733Y12113584D01*
X54777585Y12185619D01*
X54806395Y12255174D01*
X54821083Y12329013D01*
X54842934Y12401048D01*
X54850312Y12475960D01*
X54865000Y12549801D01*
X54865000Y14180723D01*
X54872378Y14255634D01*
X54865000Y14330545D01*
X54865000Y15165089D01*
X54872378Y15240000D01*
X54865000Y15314911D01*
X54865000Y15390199D01*
X54850312Y15464040D01*
X54842934Y15538952D01*
X54821083Y15610987D01*
X54806395Y15684826D01*
X54777585Y15754381D01*
X54755733Y15826416D01*
X54720249Y15892802D01*
X54691438Y15962358D01*
X54649610Y16024958D01*
X54614126Y16091344D01*
X54566373Y16149532D01*
X54524545Y16212131D01*
X54471307Y16265369D01*
X54423555Y16323555D01*
X54365368Y16371308D01*
X54312131Y16424545D01*
X54249532Y16466373D01*
X54196370Y16510001D01*
X54249520Y16553619D01*
X54312131Y16595455D01*
X54365379Y16648703D01*
X54423554Y16696446D01*
X54471297Y16754621D01*
X54524545Y16807869D01*
X54566381Y16870480D01*
X54614125Y16928657D01*
X54649603Y16995031D01*
X54691438Y17057642D01*
X54720254Y17127211D01*
X54755732Y17193585D01*
X54777580Y17265607D01*
X54806395Y17335174D01*
X54821085Y17409026D01*
X54842933Y17481049D01*
X54850310Y17555949D01*
X54865000Y17629801D01*
X54865000Y17705101D01*
X54872377Y17780001D01*
X54865000Y17854901D01*
X54865000Y17930199D01*
X54850310Y18004049D01*
X54842933Y18078953D01*
X54821084Y18150979D01*
X54806395Y18224826D01*
X54777581Y18294389D01*
X54755732Y18366416D01*
X54720252Y18432795D01*
X54691438Y18502358D01*
X54649607Y18564962D01*
X54614125Y18631345D01*
X54566373Y18689531D01*
X54524545Y18752131D01*
X54312131Y18964545D01*
X51931316Y21345358D01*
X51883555Y21403555D01*
X51651344Y21594126D01*
X51386416Y21735733D01*
X51098952Y21822934D01*
X50874911Y21845000D01*
X50800000Y21852378D01*
X50725089Y21845000D01*
X29556041Y21845000D01*
X28717821Y22683219D01*
X28765174Y22663605D01*
X29059801Y22605000D01*
X29360199Y22605000D01*
X29654826Y22663605D01*
X29932358Y22778562D01*
X30182131Y22945455D01*
X30394545Y23157869D01*
X30480000Y23285761D01*
X30565455Y23157869D01*
X30777869Y22945455D01*
X31027642Y22778562D01*
X31305174Y22663605D01*
X31599801Y22605000D01*
X31900199Y22605000D01*
X32194826Y22663605D01*
X32472358Y22778562D01*
X32722131Y22945455D01*
X32934545Y23157869D01*
X33015598Y23279173D01*
X33015874Y23278657D01*
X33063625Y23220472D01*
X33105455Y23157869D01*
X33158694Y23104630D01*
X33206445Y23046445D01*
X33264632Y22998692D01*
X33317869Y22945455D01*
X33380468Y22903627D01*
X33438656Y22855874D01*
X33505042Y22820390D01*
X33567642Y22778562D01*
X33637198Y22749751D01*
X33703584Y22714267D01*
X33775619Y22692415D01*
X33845174Y22663605D01*
X33919013Y22648917D01*
X33991048Y22627066D01*
X34065960Y22619688D01*
X34139801Y22605000D01*
X34215089Y22605000D01*
X34290000Y22597622D01*
X34364910Y22605000D01*
X34440199Y22605000D01*
X34514040Y22619688D01*
X34588951Y22627066D01*
X34660984Y22648917D01*
X34734826Y22663605D01*
X34804384Y22692417D01*
X34876415Y22714267D01*
X34942798Y22749749D01*
X35012358Y22778562D01*
X35074962Y22820392D01*
X35141343Y22855874D01*
X35199528Y22903625D01*
X35262131Y22945455D01*
X35315370Y22998694D01*
X35373555Y23046445D01*
X35421308Y23104632D01*
X35474545Y23157869D01*
X35516373Y23220468D01*
X35564126Y23278656D01*
X35564402Y23279173D01*
X35645455Y23157869D01*
X35857869Y22945455D01*
X36107642Y22778562D01*
X36385174Y22663605D01*
X36679801Y22605000D01*
X36980199Y22605000D01*
X37274826Y22663605D01*
X37552358Y22778562D01*
X37802131Y22945455D01*
X38014545Y23157869D01*
X38100000Y23285761D01*
X38185455Y23157869D01*
X38397869Y22945455D01*
X38647642Y22778562D01*
X38925174Y22663605D01*
X39219801Y22605000D01*
X39520199Y22605000D01*
X39814826Y22663605D01*
X40092358Y22778562D01*
X40342131Y22945455D01*
X40554545Y23157869D01*
X40640000Y23285761D01*
X40725455Y23157869D01*
X40937869Y22945455D01*
X41187642Y22778562D01*
X41465174Y22663605D01*
X41759801Y22605000D01*
X42060199Y22605000D01*
X42354826Y22663605D01*
X42632358Y22778562D01*
X42882131Y22945455D01*
X43094545Y23157869D01*
X43180000Y23285761D01*
X43265455Y23157869D01*
X43477869Y22945455D01*
X43727642Y22778562D01*
X44005174Y22663605D01*
X44299801Y22605000D01*
X44600199Y22605000D01*
X44894826Y22663605D01*
X45172358Y22778562D01*
X45422131Y22945455D01*
X45634545Y23157869D01*
X45715598Y23279173D01*
X45715874Y23278657D01*
X45763625Y23220472D01*
X45805455Y23157869D01*
X45858694Y23104630D01*
X45906445Y23046445D01*
X45964632Y22998692D01*
X46017869Y22945455D01*
X46080468Y22903627D01*
X46138656Y22855874D01*
X46205042Y22820390D01*
X46267642Y22778562D01*
X46337198Y22749751D01*
X46403584Y22714267D01*
X46475619Y22692415D01*
X46545174Y22663605D01*
X46619013Y22648917D01*
X46691048Y22627066D01*
X46765960Y22619688D01*
X46839801Y22605000D01*
X46915089Y22605000D01*
X46990000Y22597622D01*
X47064910Y22605000D01*
X47140199Y22605000D01*
X47214040Y22619688D01*
X47288951Y22627066D01*
X47360984Y22648917D01*
X47434826Y22663605D01*
X47504384Y22692417D01*
X47576415Y22714267D01*
X47642798Y22749749D01*
X47712358Y22778562D01*
X47774962Y22820392D01*
X47841343Y22855874D01*
X47899528Y22903625D01*
X47962131Y22945455D01*
X48015370Y22998694D01*
X48073555Y23046445D01*
X48121308Y23104632D01*
X48174545Y23157869D01*
X48216373Y23220468D01*
X48264126Y23278656D01*
X48299610Y23345042D01*
X48341438Y23407642D01*
X48370249Y23477198D01*
X48405733Y23543584D01*
X48427585Y23615619D01*
X48456395Y23685174D01*
X48471083Y23759013D01*
X48492934Y23831048D01*
X48500312Y23905960D01*
X48515000Y23979801D01*
X48515000Y26595090D01*
X48522378Y26670000D01*
X48492934Y26968952D01*
X48405733Y27256416D01*
X48264126Y27521344D01*
X48073555Y27753555D01*
X47841344Y27944126D01*
X47576416Y28085733D01*
X47288952Y28172934D01*
X47064911Y28195000D01*
X46990000Y28202378D01*
X46915090Y28195000D01*
X46915089Y28195000D01*
X46691048Y28172934D01*
X46403584Y28085733D01*
X46138656Y27944126D01*
X45906445Y27753555D01*
X45715874Y27521344D01*
X45574267Y27256416D01*
X45487066Y26968952D01*
X45457622Y26670000D01*
X45465001Y26595080D01*
X45465000Y25271676D01*
X45422131Y25314545D01*
X45172358Y25481438D01*
X44894826Y25596395D01*
X44600199Y25655000D01*
X44299801Y25655000D01*
X44005174Y25596395D01*
X43727642Y25481438D01*
X43477869Y25314545D01*
X43265455Y25102131D01*
X43180000Y24974239D01*
X43094545Y25102131D01*
X42882131Y25314545D01*
X42632358Y25481438D01*
X42354826Y25596395D01*
X42060199Y25655000D01*
X41759801Y25655000D01*
X41465174Y25596395D01*
X41187642Y25481438D01*
X40937869Y25314545D01*
X40725455Y25102131D01*
X40640000Y24974239D01*
X40554545Y25102131D01*
X40342131Y25314545D01*
X40092358Y25481438D01*
X39814826Y25596395D01*
X39520199Y25655000D01*
X39219801Y25655000D01*
X38925174Y25596395D01*
X38647642Y25481438D01*
X38397869Y25314545D01*
X38185455Y25102131D01*
X38100000Y24974239D01*
X38014545Y25102131D01*
X37802131Y25314545D01*
X37552358Y25481438D01*
X37274826Y25596395D01*
X36980199Y25655000D01*
X36679801Y25655000D01*
X36385174Y25596395D01*
X36107642Y25481438D01*
X35857869Y25314545D01*
X35815000Y25271676D01*
X35815000Y25610723D01*
X35822378Y25685634D01*
X35809491Y25816484D01*
X35792934Y25984586D01*
X35705733Y26272050D01*
X35564126Y26536978D01*
X35470261Y26651353D01*
X35421308Y26711002D01*
X35373555Y26769189D01*
X35315368Y26816942D01*
X33245562Y28886747D01*
X33252934Y28911048D01*
X33275000Y29135089D01*
X33275000Y30133960D01*
X33366041Y30225000D01*
X34440199Y30225000D01*
X34514040Y30239688D01*
X34588952Y30247066D01*
X34660987Y30268917D01*
X34734826Y30283605D01*
X34804381Y30312415D01*
X34876416Y30334267D01*
X34942802Y30369751D01*
X35012358Y30398562D01*
X35074958Y30440390D01*
X35141344Y30475874D01*
X35199532Y30523627D01*
X35262131Y30565455D01*
X35315368Y30618692D01*
X35373555Y30666445D01*
X35421309Y30724633D01*
X35474545Y30777869D01*
X35516373Y30840468D01*
X35564126Y30898656D01*
X35599610Y30965042D01*
X35641438Y31027642D01*
X35670249Y31097198D01*
X35705733Y31163584D01*
X35727585Y31235619D01*
X35756395Y31305174D01*
X35771083Y31379013D01*
X35792934Y31451048D01*
X35800312Y31525960D01*
X35815000Y31599801D01*
X35815000Y31675089D01*
X35822378Y31750000D01*
X35815000Y31824911D01*
X35815000Y31900199D01*
X35800312Y31974040D01*
X35792934Y32048952D01*
X35771083Y32120987D01*
X35756395Y32194826D01*
X35727585Y32264381D01*
X35705733Y32336416D01*
X35670249Y32402802D01*
X35641438Y32472358D01*
X35599610Y32534958D01*
X35564126Y32601344D01*
X35516373Y32659532D01*
X35474545Y32722131D01*
X35421308Y32775368D01*
X35373555Y32833555D01*
X35315368Y32881308D01*
X35262131Y32934545D01*
X35199532Y32976373D01*
X35141344Y33024126D01*
X35140827Y33024402D01*
X35262131Y33105455D01*
X35474545Y33317869D01*
X35641438Y33567642D01*
X35756395Y33845174D01*
X35815000Y34139801D01*
X35815000Y34440199D01*
X35756395Y34734826D01*
X35641438Y35012358D01*
X35474545Y35262131D01*
X35431676Y35305000D01*
X47064911Y35305000D01*
X47288952Y35327066D01*
X47576416Y35414267D01*
X47841344Y35555874D01*
X48073555Y35746445D01*
X48264126Y35978656D01*
X48405733Y36243584D01*
X48492934Y36531048D01*
X48522378Y36830000D01*
X48492934Y37128952D01*
X48405733Y37416416D01*
X48264126Y37681344D01*
X48073555Y37913555D01*
X47841344Y38104126D01*
X47576416Y38245733D01*
X47288952Y38332934D01*
X47064911Y38355000D01*
X35431676Y38355000D01*
X35474545Y38397869D01*
X35641438Y38647642D01*
X35756395Y38925174D01*
X35815000Y39219801D01*
X35815000Y39520199D01*
X35756395Y39814826D01*
X35641438Y40092358D01*
X35474545Y40342131D01*
X35262131Y40554545D01*
X35140827Y40635598D01*
X35141344Y40635874D01*
X35199532Y40683627D01*
X35262131Y40725455D01*
X35315368Y40778692D01*
X35373555Y40826445D01*
X35421308Y40884632D01*
X35474545Y40937869D01*
X35516373Y41000468D01*
X35564126Y41058656D01*
X35599610Y41125042D01*
X35641438Y41187642D01*
X35670249Y41257198D01*
X35705733Y41323584D01*
X35727585Y41395619D01*
X35756395Y41465174D01*
X35771083Y41539013D01*
X35792934Y41611048D01*
X35800312Y41685960D01*
X35815000Y41759801D01*
X35815000Y41835089D01*
X35822378Y41910000D01*
X35815000Y41984911D01*
X35815000Y42060199D01*
X35800312Y42134040D01*
X35792934Y42208952D01*
X35771083Y42280987D01*
X35756395Y42354826D01*
X35727585Y42424381D01*
X35705733Y42496416D01*
X35670249Y42562802D01*
X35641438Y42632358D01*
X35599610Y42694958D01*
X35564126Y42761344D01*
X35516373Y42819532D01*
X35474545Y42882131D01*
X35421308Y42935368D01*
X35373555Y42993555D01*
X35315368Y43041308D01*
X35262131Y43094545D01*
X35199532Y43136373D01*
X35141344Y43184126D01*
X35074958Y43219610D01*
X35012358Y43261438D01*
X34942802Y43290249D01*
X34876416Y43325733D01*
X34804381Y43347585D01*
X34734826Y43376395D01*
X34660987Y43391083D01*
X34588952Y43412934D01*
X34514040Y43420312D01*
X34440199Y43435000D01*
X33094899Y43435000D01*
X33019999Y43442377D01*
X32945099Y43435000D01*
X32945089Y43435000D01*
X32721048Y43412934D01*
X32433584Y43325733D01*
X32168656Y43184126D01*
X31936445Y42993555D01*
X31888692Y42935368D01*
X29848326Y40895000D01*
X24204911Y40895000D01*
X24130000Y40902378D01*
X24055089Y40895000D01*
X23979801Y40895000D01*
X23905960Y40880312D01*
X23831048Y40872934D01*
X23759013Y40851083D01*
X23685174Y40836395D01*
X23615619Y40807585D01*
X23543584Y40785733D01*
X23477198Y40750249D01*
X23407642Y40721438D01*
X23345042Y40679610D01*
X23278656Y40644126D01*
X23220468Y40596373D01*
X23157869Y40554545D01*
X23104632Y40501308D01*
X23046445Y40453555D01*
X22998692Y40395368D01*
X22945455Y40342131D01*
X22945453Y40342128D01*
X18024643Y35421317D01*
X17966445Y35373555D01*
X17775874Y35141344D01*
X17634267Y34876416D01*
X17547066Y34588952D01*
X17517622Y34290000D01*
X17547066Y33991048D01*
X17634267Y33703584D01*
X17775874Y33438656D01*
X17966445Y33206445D01*
X18198656Y33015874D01*
X18463584Y32874267D01*
X18751048Y32787066D01*
X19050000Y32757622D01*
X19348952Y32787066D01*
X19636416Y32874267D01*
X19901344Y33015874D01*
X20133555Y33206445D01*
X20181317Y33264643D01*
X24761675Y37845000D01*
X30405089Y37845000D01*
X30480000Y37837622D01*
X30554911Y37845000D01*
X30630199Y37845000D01*
X30704040Y37859688D01*
X30778952Y37867066D01*
X30794294Y37871720D01*
X30850987Y37888917D01*
X30924826Y37903605D01*
X30994381Y37932415D01*
X31066416Y37954267D01*
X31073502Y37958055D01*
X31064999Y37871720D01*
X31064999Y37871713D01*
X31059315Y37814001D01*
X31064999Y37756288D01*
X31065000Y36675020D01*
X28984406Y36675020D01*
X28926694Y36680704D01*
X28868982Y36675020D01*
X28868974Y36675020D01*
X28715899Y36659943D01*
X28696353Y36658018D01*
X28474865Y36590831D01*
X28270741Y36481724D01*
X28091824Y36334890D01*
X28055032Y36290059D01*
X26498363Y34733390D01*
X26479980Y34735201D01*
X26200632Y34707688D01*
X25932019Y34626205D01*
X25684463Y34493883D01*
X25467479Y34315809D01*
X25289405Y34098825D01*
X25157083Y33851269D01*
X25075600Y33582656D01*
X25054981Y33373304D01*
X25054981Y32966050D01*
X25039528Y32976375D01*
X24981343Y33024126D01*
X24914962Y33059608D01*
X24852358Y33101438D01*
X24782798Y33130251D01*
X24716415Y33165733D01*
X24644384Y33187583D01*
X24574826Y33216395D01*
X24500984Y33231083D01*
X24428951Y33252934D01*
X24354040Y33260312D01*
X24280199Y33275000D01*
X24204910Y33275000D01*
X24130000Y33282378D01*
X24055089Y33275000D01*
X23979801Y33275000D01*
X23905960Y33260312D01*
X23831048Y33252934D01*
X23759013Y33231083D01*
X23685174Y33216395D01*
X23615619Y33187585D01*
X23543584Y33165733D01*
X23477198Y33130249D01*
X23407642Y33101438D01*
X23345042Y33059610D01*
X23278656Y33024126D01*
X23220468Y32976373D01*
X23157869Y32934545D01*
X23104632Y32881308D01*
X23046445Y32833555D01*
X22998694Y32775370D01*
X22945455Y32722131D01*
X22903625Y32659528D01*
X22855874Y32601343D01*
X22820392Y32534962D01*
X22778562Y32472358D01*
X22749749Y32402798D01*
X22714267Y32336415D01*
X22692417Y32264384D01*
X22663605Y32194826D01*
X22648917Y32120984D01*
X22627066Y32048951D01*
X22619688Y31974040D01*
X22605000Y31900199D01*
X22605000Y31824910D01*
X22605001Y27811675D01*
X22562131Y27854545D01*
X22499528Y27896375D01*
X22441343Y27944126D01*
X22374962Y27979608D01*
X22312358Y28021438D01*
X22242798Y28050251D01*
X22176415Y28085733D01*
X22104384Y28107583D01*
X22034826Y28136395D01*
X21960984Y28151083D01*
X21888951Y28172934D01*
X21814040Y28180312D01*
X21740199Y28195000D01*
X21664910Y28195000D01*
X21590000Y28202378D01*
X21515089Y28195000D01*
X21439801Y28195000D01*
X21365960Y28180312D01*
X21291048Y28172934D01*
X21219013Y28151083D01*
X21145174Y28136395D01*
X21075619Y28107585D01*
X21003584Y28085733D01*
X20937198Y28050249D01*
X20867642Y28021438D01*
X20805042Y27979610D01*
X20738656Y27944126D01*
X20680468Y27896373D01*
X20617869Y27854545D01*
X20564632Y27801308D01*
X20506445Y27753555D01*
X20458694Y27695370D01*
X20405455Y27642131D01*
X20363625Y27579528D01*
X20315874Y27521343D01*
X20280392Y27454962D01*
X20238562Y27392358D01*
X20209749Y27322798D01*
X20174267Y27256415D01*
X20152417Y27184384D01*
X20123605Y27114826D01*
X20108917Y27040984D01*
X20087066Y26968951D01*
X20079688Y26894040D01*
X20065000Y26820199D01*
X20065000Y26744910D01*
X20065001Y25271675D01*
X20022131Y25314545D01*
X19772358Y25481438D01*
X19494826Y25596395D01*
X19200199Y25655000D01*
X18899801Y25655000D01*
X18605174Y25596395D01*
X18327642Y25481438D01*
X18077869Y25314545D01*
X17865455Y25102131D01*
X17780000Y24974239D01*
X17694545Y25102131D01*
X17482131Y25314545D01*
X17232358Y25481438D01*
X16954826Y25596395D01*
X16660199Y25655000D01*
X16359801Y25655000D01*
X16065174Y25596395D01*
X15787642Y25481438D01*
X15537869Y25314545D01*
X15325455Y25102131D01*
X15158562Y24852358D01*
X15043605Y24574826D01*
X14985000Y24280199D01*
X12955000Y24280199D01*
X12955000Y34215089D01*
X12962378Y34290000D01*
X12932934Y34588952D01*
X12845733Y34876416D01*
X12704126Y35141344D01*
X12513555Y35373555D01*
X12281344Y35564126D01*
X12016416Y35705733D01*
X11728952Y35792934D01*
X11504911Y35815000D01*
X11430000Y35822378D01*
X11355090Y35815000D01*
X11355089Y35815000D01*
X11131048Y35792934D01*
X10843584Y35705733D01*
X10578656Y35564126D01*
X10346445Y35373555D01*
X10155874Y35141344D01*
X10014267Y34876416D01*
X9927066Y34588952D01*
X9897622Y34290000D01*
X9905001Y34215079D01*
X9905000Y26595090D01*
X9905001Y26595080D01*
X9905001Y25655000D01*
X8815089Y25655000D01*
X8591048Y25632934D01*
X8303584Y25545733D01*
X8038656Y25404126D01*
X7806445Y25213555D01*
X7615874Y24981344D01*
X7474267Y24716416D01*
X7387066Y24428952D01*
X7357622Y24130000D01*
X475000Y24130000D01*
X475000Y58705634D01*
X3547622Y58705634D01*
X3555000Y58630723D01*
X3555000Y57224910D01*
X3555001Y54760204D01*
X3555000Y54760199D01*
X3555000Y54459801D01*
X3555001Y54459796D01*
X3555000Y52144911D01*
X3547622Y52070000D01*
X3577066Y51771048D01*
X3664267Y51483584D01*
X3805874Y51218656D01*
X3988279Y50996395D01*
X3996445Y50986445D01*
X4228656Y50795874D01*
X4493584Y50654267D01*
X4781048Y50567066D01*
X5080000Y50537622D01*
X5154910Y50545000D01*
X9905000Y50545000D01*
X9905000Y49604910D01*
X9905001Y46915089D01*
X9927067Y46691048D01*
X10014268Y46403584D01*
X10155875Y46138656D01*
X10346446Y45906445D01*
X10578657Y45715874D01*
X10843585Y45574267D01*
X11131049Y45487066D01*
X11430000Y45457622D01*
X11728952Y45487066D01*
X12016416Y45574267D01*
X12281344Y45715874D01*
X12513555Y45906445D01*
X12704126Y46138656D01*
X12845733Y46403584D01*
X12932934Y46691048D01*
X12955000Y46915089D01*
X12955000Y49680199D01*
X14985000Y49680199D01*
X14985000Y49379801D01*
X15043605Y49085174D01*
X15158562Y48807642D01*
X15325455Y48557869D01*
X15537869Y48345455D01*
X15787642Y48178562D01*
X16065174Y48063605D01*
X16359801Y48005000D01*
X16660199Y48005000D01*
X16954826Y48063605D01*
X17232358Y48178562D01*
X17482131Y48345455D01*
X17694545Y48557869D01*
X17780000Y48685761D01*
X17865455Y48557869D01*
X18077869Y48345455D01*
X18327642Y48178562D01*
X18605174Y48063605D01*
X18899801Y48005000D01*
X19200199Y48005000D01*
X19494826Y48063605D01*
X19772358Y48178562D01*
X20022131Y48345455D01*
X20234545Y48557869D01*
X20320000Y48685761D01*
X20405455Y48557869D01*
X20617869Y48345455D01*
X20867642Y48178562D01*
X21145174Y48063605D01*
X21439801Y48005000D01*
X21740199Y48005000D01*
X22034826Y48063605D01*
X22312358Y48178562D01*
X22562131Y48345455D01*
X22774545Y48557869D01*
X22860000Y48685761D01*
X22945455Y48557869D01*
X23157869Y48345455D01*
X23407642Y48178562D01*
X23685174Y48063605D01*
X23979801Y48005000D01*
X24280199Y48005000D01*
X24574826Y48063605D01*
X24852358Y48178562D01*
X25102131Y48345455D01*
X25314545Y48557869D01*
X25400000Y48685761D01*
X25485455Y48557869D01*
X25697869Y48345455D01*
X25947642Y48178562D01*
X26225174Y48063605D01*
X26519801Y48005000D01*
X26820199Y48005000D01*
X27114826Y48063605D01*
X27392358Y48178562D01*
X27642131Y48345455D01*
X27854545Y48557869D01*
X27940000Y48685761D01*
X28025455Y48557869D01*
X28237869Y48345455D01*
X28487642Y48178562D01*
X28678387Y48099553D01*
X28718287Y48024906D01*
X28828326Y47890823D01*
X28828329Y47890820D01*
X28865121Y47845989D01*
X28909952Y47809197D01*
X30029197Y46689951D01*
X30065989Y46645120D01*
X30110820Y46608328D01*
X30110822Y46608326D01*
X30199841Y46535270D01*
X30244906Y46498286D01*
X30422080Y46403584D01*
X30449030Y46389179D01*
X30670518Y46321992D01*
X30691876Y46319888D01*
X30843139Y46304990D01*
X30843146Y46304990D01*
X30900858Y46299306D01*
X30958570Y46304990D01*
X35357278Y46304990D01*
X35414990Y46299306D01*
X35472702Y46304990D01*
X35472710Y46304990D01*
X35472801Y46304999D01*
X37897287Y46304999D01*
X37954999Y46299315D01*
X38012711Y46304999D01*
X38012719Y46304999D01*
X38170499Y46320539D01*
X38177016Y46319897D01*
X38328279Y46304999D01*
X38328286Y46304999D01*
X38385998Y46299315D01*
X38443710Y46304999D01*
X42977287Y46304999D01*
X43034999Y46299315D01*
X43092711Y46304999D01*
X43092719Y46304999D01*
X43250499Y46320539D01*
X43257016Y46319897D01*
X43408279Y46304999D01*
X43408286Y46304999D01*
X43465998Y46299315D01*
X43523710Y46304999D01*
X47916289Y46304999D01*
X47974001Y46299315D01*
X48031713Y46304999D01*
X48031721Y46304999D01*
X48204341Y46322001D01*
X48425830Y46389188D01*
X48629954Y46498295D01*
X48808871Y46645129D01*
X48845667Y46689965D01*
X49830041Y47674338D01*
X49874871Y47711129D01*
X50021705Y47890046D01*
X50130812Y48094170D01*
X50142624Y48133109D01*
X50252358Y48178562D01*
X50502131Y48345455D01*
X50714545Y48557869D01*
X50881438Y48807642D01*
X50996395Y49085174D01*
X51055000Y49379801D01*
X51055000Y49680199D01*
X50996395Y49974826D01*
X50881438Y50252358D01*
X50714545Y50502131D01*
X50502131Y50714545D01*
X50252358Y50881438D01*
X49974826Y50996395D01*
X49680199Y51055000D01*
X49379801Y51055000D01*
X49085174Y50996395D01*
X48807642Y50881438D01*
X48557869Y50714545D01*
X48345455Y50502131D01*
X48260000Y50374239D01*
X48174545Y50502131D01*
X47962131Y50714545D01*
X47712358Y50881438D01*
X47434826Y50996395D01*
X47140199Y51055000D01*
X46839801Y51055000D01*
X46545174Y50996395D01*
X46267642Y50881438D01*
X46017869Y50714545D01*
X45975000Y50671676D01*
X45975000Y57150000D01*
X47997622Y57150000D01*
X48005000Y57075090D01*
X48005000Y56999801D01*
X48019688Y56925960D01*
X48027066Y56851048D01*
X48048917Y56779013D01*
X48063605Y56705174D01*
X48092415Y56635619D01*
X48114267Y56563584D01*
X48149751Y56497198D01*
X48178562Y56427642D01*
X48220390Y56365042D01*
X48255874Y56298656D01*
X48303627Y56240468D01*
X48345455Y56177869D01*
X48398692Y56124632D01*
X48446445Y56066445D01*
X48504632Y56018692D01*
X48557869Y55965455D01*
X48620468Y55923627D01*
X48678656Y55875874D01*
X48745042Y55840390D01*
X48807642Y55798562D01*
X48877198Y55769751D01*
X48943584Y55734267D01*
X49015619Y55712415D01*
X49085174Y55683605D01*
X49159013Y55668917D01*
X49231048Y55647066D01*
X49305960Y55639688D01*
X49379801Y55625000D01*
X52144911Y55625000D01*
X52368952Y55647066D01*
X52656416Y55734267D01*
X52921344Y55875874D01*
X53153555Y56066445D01*
X53344126Y56298656D01*
X53485733Y56563584D01*
X53572934Y56851048D01*
X53602378Y57150000D01*
X53572934Y57448952D01*
X53485733Y57736416D01*
X53344126Y58001344D01*
X53153555Y58233555D01*
X52921344Y58424126D01*
X52656416Y58565733D01*
X52368952Y58652934D01*
X52144911Y58675000D01*
X49379801Y58675000D01*
X49305960Y58660312D01*
X49231048Y58652934D01*
X49159013Y58631083D01*
X49085174Y58616395D01*
X49015619Y58587585D01*
X48943584Y58565733D01*
X48877198Y58530249D01*
X48807642Y58501438D01*
X48745042Y58459610D01*
X48678656Y58424126D01*
X48620468Y58376373D01*
X48557869Y58334545D01*
X48504632Y58281308D01*
X48446445Y58233555D01*
X48398692Y58175368D01*
X48345455Y58122131D01*
X48303627Y58059532D01*
X48255874Y58001344D01*
X48220390Y57934958D01*
X48178562Y57872358D01*
X48149751Y57802802D01*
X48114267Y57736416D01*
X48092415Y57664381D01*
X48063605Y57594826D01*
X48048917Y57520987D01*
X48027066Y57448952D01*
X48019688Y57374040D01*
X48005000Y57300199D01*
X48005000Y57224911D01*
X47997622Y57150000D01*
X45975000Y57150000D01*
X45975000Y68325000D01*
X47140199Y68325000D01*
X47214040Y68339688D01*
X47288952Y68347066D01*
X47360987Y68368917D01*
X47434826Y68383605D01*
X47504381Y68412415D01*
X47576416Y68434267D01*
X47642802Y68469751D01*
X47712358Y68498562D01*
X47774958Y68540390D01*
X47841344Y68575874D01*
X47899532Y68623627D01*
X47962131Y68665455D01*
X48015369Y68718693D01*
X48073555Y68766445D01*
X48121308Y68824632D01*
X48174545Y68877869D01*
X48216373Y68940468D01*
X48264126Y68998656D01*
X48299610Y69065042D01*
X48341438Y69127642D01*
X48370249Y69197198D01*
X48405733Y69263584D01*
X48427585Y69335619D01*
X48456395Y69405174D01*
X48471083Y69479013D01*
X48492934Y69551048D01*
X48500312Y69625960D01*
X48515000Y69699801D01*
X48515000Y69775089D01*
X48522378Y69850000D01*
X48515000Y69924911D01*
X48515000Y70000199D01*
X48500312Y70074040D01*
X48492934Y70148952D01*
X48471083Y70220987D01*
X48456395Y70294826D01*
X48427585Y70364381D01*
X48405733Y70436416D01*
X48370249Y70502802D01*
X48341438Y70572358D01*
X48299610Y70634958D01*
X48264126Y70701344D01*
X48216373Y70759532D01*
X48174545Y70822131D01*
X48121308Y70875368D01*
X48073555Y70933555D01*
X48015368Y70981308D01*
X47962131Y71034545D01*
X47899532Y71076373D01*
X47841344Y71124126D01*
X47774958Y71159610D01*
X47712358Y71201438D01*
X47642802Y71230249D01*
X47576416Y71265733D01*
X47504381Y71287585D01*
X47434826Y71316395D01*
X47360987Y71331083D01*
X47288952Y71352934D01*
X47214040Y71360312D01*
X47140199Y71375000D01*
X44524911Y71375000D01*
X44450000Y71382378D01*
X44375090Y71375000D01*
X44299801Y71375000D01*
X44225960Y71360312D01*
X44151048Y71352934D01*
X44079013Y71331083D01*
X44005174Y71316395D01*
X43935619Y71287585D01*
X43863584Y71265733D01*
X43797198Y71230249D01*
X43727642Y71201438D01*
X43665042Y71159610D01*
X43598656Y71124126D01*
X43540468Y71076373D01*
X43477869Y71034545D01*
X43424632Y70981308D01*
X43366445Y70933555D01*
X43318692Y70875368D01*
X43265455Y70822131D01*
X43223627Y70759532D01*
X43175874Y70701344D01*
X43140390Y70634958D01*
X43098562Y70572358D01*
X43069751Y70502802D01*
X43034267Y70436416D01*
X43012415Y70364381D01*
X42983605Y70294826D01*
X42968917Y70220987D01*
X42947066Y70148952D01*
X42939688Y70074040D01*
X42925000Y70000199D01*
X42925000Y69924911D01*
X42917622Y69850000D01*
X42925000Y69775089D01*
X42925000Y69699801D01*
X42925001Y69699796D01*
X42925000Y67384911D01*
X42925000Y67384910D01*
X42925001Y50671675D01*
X42882131Y50714545D01*
X42632358Y50881438D01*
X42354826Y50996395D01*
X42060199Y51055000D01*
X41759801Y51055000D01*
X41465174Y50996395D01*
X41187642Y50881438D01*
X40937869Y50714545D01*
X40725455Y50502131D01*
X40640000Y50374239D01*
X40554545Y50502131D01*
X40342131Y50714545D01*
X40092358Y50881438D01*
X39814826Y50996395D01*
X39520199Y51055000D01*
X39219801Y51055000D01*
X38925174Y50996395D01*
X38647642Y50881438D01*
X38397869Y50714545D01*
X38185455Y50502131D01*
X38100000Y50374239D01*
X38014545Y50502131D01*
X37802131Y50714545D01*
X37552358Y50881438D01*
X37274826Y50996395D01*
X36980199Y51055000D01*
X36679801Y51055000D01*
X36385174Y50996395D01*
X36107642Y50881438D01*
X35857869Y50714545D01*
X35815000Y50671676D01*
X35815000Y52270074D01*
X36585362Y53040435D01*
X36643555Y53088193D01*
X36834126Y53320404D01*
X36975733Y53585332D01*
X37062934Y53872796D01*
X37085000Y54096837D01*
X37092378Y54171747D01*
X37085000Y54246658D01*
X37085000Y76350199D01*
X37070312Y76424040D01*
X37062934Y76498952D01*
X37041083Y76570987D01*
X37026395Y76644826D01*
X36997585Y76714381D01*
X36975733Y76786416D01*
X36940249Y76852802D01*
X36911438Y76922358D01*
X36869610Y76984958D01*
X36834126Y77051344D01*
X36786373Y77109532D01*
X36744545Y77172131D01*
X36691308Y77225368D01*
X36643555Y77283555D01*
X36585370Y77331306D01*
X36532131Y77384545D01*
X36469528Y77426375D01*
X36411343Y77474126D01*
X36344962Y77509608D01*
X36282358Y77551438D01*
X36212798Y77580251D01*
X36146415Y77615733D01*
X36074384Y77637583D01*
X36004826Y77666395D01*
X35930984Y77681083D01*
X35858951Y77702934D01*
X35784040Y77710312D01*
X35710199Y77725000D01*
X35634910Y77725000D01*
X35560000Y77732378D01*
X35485089Y77725000D01*
X35409801Y77725000D01*
X35335960Y77710312D01*
X35261048Y77702934D01*
X35189013Y77681083D01*
X35115174Y77666395D01*
X35045619Y77637585D01*
X34973584Y77615733D01*
X34907198Y77580249D01*
X34837642Y77551438D01*
X34775042Y77509610D01*
X34708656Y77474126D01*
X34650468Y77426373D01*
X34587869Y77384545D01*
X34534632Y77331308D01*
X34476445Y77283555D01*
X34428694Y77225370D01*
X34375455Y77172131D01*
X34333625Y77109528D01*
X34285874Y77051343D01*
X34250392Y76984962D01*
X34208562Y76922358D01*
X34179749Y76852798D01*
X34144267Y76786415D01*
X34122417Y76714384D01*
X34093605Y76644826D01*
X34078917Y76570984D01*
X34057066Y76498951D01*
X34049688Y76424040D01*
X34035000Y76350199D01*
X34035000Y71272135D01*
X33963565Y71359179D01*
X33905367Y71406941D01*
X33166951Y72145357D01*
X33119189Y72203555D01*
X32886978Y72394126D01*
X32622050Y72535733D01*
X32334586Y72622934D01*
X32110545Y72645000D01*
X32035634Y72652378D01*
X31960723Y72645000D01*
X30329801Y72645000D01*
X30255960Y72630312D01*
X30181048Y72622934D01*
X30109013Y72601083D01*
X30035174Y72586395D01*
X29965619Y72557585D01*
X29893584Y72535733D01*
X29827198Y72500249D01*
X29757642Y72471438D01*
X29695042Y72429610D01*
X29628656Y72394126D01*
X29570468Y72346373D01*
X29507869Y72304545D01*
X29454632Y72251308D01*
X29396445Y72203555D01*
X29348692Y72145368D01*
X29295455Y72092131D01*
X29253627Y72029532D01*
X29205874Y71971344D01*
X29170390Y71904958D01*
X29128562Y71842358D01*
X29099751Y71772802D01*
X29064267Y71706416D01*
X29042415Y71634381D01*
X29013605Y71564826D01*
X28998917Y71490987D01*
X28977066Y71418952D01*
X28969688Y71344040D01*
X28955000Y71270199D01*
X28955000Y71194911D01*
X28947622Y71120000D01*
X28955000Y71045089D01*
X28955000Y70969801D01*
X28969688Y70895960D01*
X28977066Y70821048D01*
X28998917Y70749013D01*
X29013605Y70675174D01*
X29042415Y70605619D01*
X29064267Y70533584D01*
X29099751Y70467198D01*
X29128562Y70397642D01*
X29170390Y70335042D01*
X29205874Y70268656D01*
X29253627Y70210468D01*
X29295455Y70147869D01*
X29348691Y70094633D01*
X29396445Y70036445D01*
X29454632Y69988692D01*
X29507869Y69935455D01*
X29570468Y69893627D01*
X29623628Y69850000D01*
X29396445Y69663555D01*
X29205874Y69431343D01*
X29064267Y69166415D01*
X28977066Y68878951D01*
X28955000Y68654910D01*
X28955001Y66887263D01*
X28911048Y66882934D01*
X28623584Y66795733D01*
X28358656Y66654126D01*
X28126445Y66463555D01*
X27935874Y66231344D01*
X27794267Y65966416D01*
X27707066Y65678952D01*
X27677622Y65380000D01*
X27707066Y65081048D01*
X27794267Y64793584D01*
X27935874Y64528656D01*
X28126445Y64296445D01*
X28358656Y64105874D01*
X28623584Y63964267D01*
X28911048Y63877066D01*
X29135089Y63855000D01*
X30554911Y63855000D01*
X30778952Y63877066D01*
X31066416Y63964267D01*
X31331344Y64105874D01*
X31355011Y64125297D01*
X31355010Y55517559D01*
X30724637Y54887185D01*
X30666446Y54839429D01*
X30475875Y54607218D01*
X30437321Y54535089D01*
X30334267Y54342289D01*
X30247066Y54054826D01*
X30217622Y53755874D01*
X30225001Y53680954D01*
X30225000Y50671676D01*
X30182131Y50714545D01*
X29932358Y50881438D01*
X29654826Y50996395D01*
X29360199Y51055000D01*
X29059801Y51055000D01*
X28765174Y50996395D01*
X28487642Y50881438D01*
X28237869Y50714545D01*
X28025455Y50502131D01*
X27940000Y50374239D01*
X27854545Y50502131D01*
X27642131Y50714545D01*
X27392358Y50881438D01*
X27114826Y50996395D01*
X26820199Y51055000D01*
X26519801Y51055000D01*
X26225174Y50996395D01*
X25947642Y50881438D01*
X25697869Y50714545D01*
X25485455Y50502131D01*
X25400000Y50374239D01*
X25314545Y50502131D01*
X25102131Y50714545D01*
X24852358Y50881438D01*
X24574826Y50996395D01*
X24280199Y51055000D01*
X23979801Y51055000D01*
X23685174Y50996395D01*
X23407642Y50881438D01*
X23157869Y50714545D01*
X22945455Y50502131D01*
X22860000Y50374239D01*
X22774545Y50502131D01*
X22562131Y50714545D01*
X22312358Y50881438D01*
X22034826Y50996395D01*
X21740199Y51055000D01*
X21439801Y51055000D01*
X21145174Y50996395D01*
X20867642Y50881438D01*
X20617869Y50714545D01*
X20405455Y50502131D01*
X20320000Y50374239D01*
X20234545Y50502131D01*
X20022131Y50714545D01*
X19772358Y50881438D01*
X19494826Y50996395D01*
X19200199Y51055000D01*
X18899801Y51055000D01*
X18605174Y50996395D01*
X18327642Y50881438D01*
X18077869Y50714545D01*
X17865455Y50502131D01*
X17780000Y50374239D01*
X17694545Y50502131D01*
X17482131Y50714545D01*
X17232358Y50881438D01*
X16954826Y50996395D01*
X16660199Y51055000D01*
X16359801Y51055000D01*
X16065174Y50996395D01*
X15787642Y50881438D01*
X15537869Y50714545D01*
X15325455Y50502131D01*
X15158562Y50252358D01*
X15043605Y49974826D01*
X14985000Y49680199D01*
X12955000Y49680199D01*
X12955000Y51995090D01*
X12962378Y52070000D01*
X12932934Y52368952D01*
X12845733Y52656416D01*
X12704126Y52921344D01*
X12513555Y53153555D01*
X12286372Y53340000D01*
X12513555Y53526445D01*
X12704126Y53758656D01*
X12845733Y54023584D01*
X12932934Y54311048D01*
X12955000Y54535089D01*
X12962378Y54610000D01*
X12955000Y54684911D01*
X12955000Y57300199D01*
X12940312Y57374040D01*
X12932934Y57448952D01*
X12911083Y57520987D01*
X12896395Y57594826D01*
X12867585Y57664381D01*
X12845733Y57736416D01*
X12810249Y57802802D01*
X12781438Y57872358D01*
X12739610Y57934958D01*
X12704126Y58001344D01*
X12656373Y58059532D01*
X12614545Y58122131D01*
X12561308Y58175368D01*
X12513555Y58233555D01*
X12455370Y58281306D01*
X12402131Y58334545D01*
X12339528Y58376375D01*
X12281343Y58424126D01*
X12214962Y58459608D01*
X12152358Y58501438D01*
X12082798Y58530251D01*
X12016415Y58565733D01*
X11944384Y58587583D01*
X11874826Y58616395D01*
X11800984Y58631083D01*
X11728951Y58652934D01*
X11654040Y58660312D01*
X11580199Y58675000D01*
X11504910Y58675000D01*
X11430000Y58682378D01*
X11355089Y58675000D01*
X11279801Y58675000D01*
X11205960Y58660312D01*
X11131048Y58652934D01*
X11059013Y58631083D01*
X10985174Y58616395D01*
X10915619Y58587585D01*
X10843584Y58565733D01*
X10777198Y58530249D01*
X10707642Y58501438D01*
X10645042Y58459610D01*
X10578656Y58424126D01*
X10520468Y58376373D01*
X10457869Y58334545D01*
X10404632Y58281308D01*
X10346445Y58233555D01*
X10298694Y58175370D01*
X10245455Y58122131D01*
X10203625Y58059528D01*
X10155874Y58001343D01*
X10120392Y57934962D01*
X10078562Y57872358D01*
X10049749Y57802798D01*
X10014267Y57736415D01*
X9992417Y57664384D01*
X9963605Y57594826D01*
X9948917Y57520984D01*
X9927066Y57448951D01*
X9919688Y57374040D01*
X9905000Y57300199D01*
X9905000Y56135000D01*
X7469801Y56135000D01*
X7395960Y56120312D01*
X7321048Y56112934D01*
X7249013Y56091083D01*
X7175174Y56076395D01*
X7105619Y56047585D01*
X7033584Y56025733D01*
X6967198Y55990249D01*
X6897642Y55961438D01*
X6835042Y55919610D01*
X6768656Y55884126D01*
X6710468Y55836373D01*
X6647869Y55794545D01*
X6605000Y55751676D01*
X6605000Y58073960D01*
X6696041Y58165000D01*
X7694911Y58165000D01*
X7918952Y58187066D01*
X8206416Y58274267D01*
X8471344Y58415874D01*
X8703555Y58606445D01*
X8894126Y58838656D01*
X9035733Y59103584D01*
X9122934Y59391048D01*
X9152378Y59690000D01*
X9122934Y59988952D01*
X9035733Y60276416D01*
X8894126Y60541344D01*
X8703555Y60773555D01*
X8471344Y60964126D01*
X8206416Y61105733D01*
X7918952Y61192934D01*
X7694911Y61215000D01*
X6139277Y61215000D01*
X6064366Y61222378D01*
X5989455Y61215000D01*
X5765414Y61192934D01*
X5477950Y61105733D01*
X5213022Y60964126D01*
X4980811Y60773555D01*
X4933053Y60715362D01*
X4054638Y59836946D01*
X3996446Y59789189D01*
X3805875Y59556978D01*
X3730184Y59415370D01*
X3664267Y59292049D01*
X3577066Y59004586D01*
X3547622Y58705634D01*
X475000Y58705634D01*
X475000Y77470000D01*
X2282622Y77470000D01*
X2312066Y77171048D01*
X2399267Y76883584D01*
X2540874Y76618656D01*
X2731445Y76386445D01*
X2963656Y76195874D01*
X3228584Y76054267D01*
X3516048Y75967066D01*
X3740089Y75945000D01*
X8635000Y75945000D01*
X8635000Y74779801D01*
X8649688Y74705960D01*
X8657066Y74631048D01*
X8678917Y74559013D01*
X8693605Y74485174D01*
X8722415Y74415619D01*
X8744267Y74343584D01*
X8779750Y74277200D01*
X8808562Y74207642D01*
X8850393Y74145037D01*
X8885875Y74078656D01*
X8933623Y74020475D01*
X8975455Y73957869D01*
X9028698Y73904626D01*
X9076446Y73846445D01*
X9134627Y73798697D01*
X9187869Y73745455D01*
X9250474Y73703624D01*
X9308657Y73655874D01*
X9375038Y73620392D01*
X9437642Y73578562D01*
X9507202Y73549749D01*
X9573585Y73514267D01*
X9645616Y73492417D01*
X9715174Y73463605D01*
X9789016Y73448917D01*
X9861049Y73427066D01*
X9935960Y73419688D01*
X10009801Y73405000D01*
X10085090Y73405000D01*
X10160000Y73397622D01*
X10234911Y73405000D01*
X10310199Y73405000D01*
X10384040Y73419688D01*
X10458952Y73427066D01*
X10530987Y73448917D01*
X10604826Y73463605D01*
X10674381Y73492415D01*
X10746416Y73514267D01*
X10812802Y73549751D01*
X10882358Y73578562D01*
X10944958Y73620390D01*
X11011344Y73655874D01*
X11069532Y73703627D01*
X11132131Y73745455D01*
X11175000Y73788324D01*
X11175000Y73021676D01*
X9528326Y71375000D01*
X7545089Y71375000D01*
X7321048Y71352934D01*
X7033584Y71265733D01*
X6768656Y71124126D01*
X6605000Y70989817D01*
X6605000Y73534323D01*
X6617378Y73660000D01*
X6587934Y73958952D01*
X6500733Y74246416D01*
X6359126Y74511344D01*
X6168555Y74743555D01*
X5936344Y74934126D01*
X5671416Y75075733D01*
X5383952Y75162934D01*
X5159911Y75185000D01*
X5154910Y75185000D01*
X5080000Y75192378D01*
X5005089Y75185000D01*
X3884910Y75185000D01*
X3810000Y75192378D01*
X3511048Y75162934D01*
X3223584Y75075733D01*
X2958656Y74934126D01*
X2726445Y74743555D01*
X2535874Y74511343D01*
X2394267Y74246415D01*
X2307066Y73958951D01*
X2285000Y73734910D01*
X2285000Y73684144D01*
X2282622Y73660000D01*
X2285000Y73635855D01*
X2285001Y67334154D01*
X2282622Y67310000D01*
X2285001Y67285846D01*
X2285001Y67235089D01*
X2307067Y67011048D01*
X2394268Y66723584D01*
X2535875Y66458656D01*
X2726446Y66226445D01*
X2958657Y66035874D01*
X3223585Y65894267D01*
X3511049Y65807066D01*
X3810000Y65777622D01*
X3884911Y65785000D01*
X5005090Y65785000D01*
X5080000Y65777622D01*
X5154911Y65785000D01*
X10288324Y65785000D01*
X10245455Y65742131D01*
X10203627Y65679532D01*
X10155874Y65621344D01*
X10120390Y65554958D01*
X10078562Y65492358D01*
X10049751Y65422802D01*
X10014267Y65356416D01*
X9992415Y65284381D01*
X9963605Y65214826D01*
X9948917Y65140987D01*
X9927066Y65068952D01*
X9919688Y64994040D01*
X9905000Y64920199D01*
X9905000Y64844911D01*
X9897622Y64770000D01*
X9905000Y64695089D01*
X9905000Y64619801D01*
X9919688Y64545960D01*
X9927066Y64471048D01*
X9948917Y64399013D01*
X9963605Y64325174D01*
X9992415Y64255619D01*
X10014267Y64183584D01*
X10049751Y64117198D01*
X10078562Y64047642D01*
X10120390Y63985042D01*
X10155874Y63918656D01*
X10203627Y63860468D01*
X10245455Y63797869D01*
X10298692Y63744632D01*
X10346445Y63686445D01*
X10404632Y63638692D01*
X10457869Y63585455D01*
X10520468Y63543627D01*
X10578656Y63495874D01*
X10645042Y63460390D01*
X10707642Y63418562D01*
X10777198Y63389751D01*
X10843584Y63354267D01*
X10915619Y63332415D01*
X10985174Y63303605D01*
X11059013Y63288917D01*
X11131048Y63267066D01*
X11205960Y63259688D01*
X11279801Y63245000D01*
X16584911Y63245000D01*
X16808952Y63267066D01*
X17096416Y63354267D01*
X17361344Y63495874D01*
X17593555Y63686445D01*
X17784126Y63918656D01*
X17925733Y64183584D01*
X18012934Y64471048D01*
X18042378Y64770000D01*
X18012934Y65068952D01*
X18011099Y65075000D01*
X18012934Y65081048D01*
X18042378Y65380000D01*
X18012934Y65678952D01*
X17925733Y65966416D01*
X17784126Y66231344D01*
X17593555Y66463555D01*
X17361344Y66654126D01*
X17096416Y66795733D01*
X16808952Y66882934D01*
X16584911Y66905000D01*
X15165089Y66905000D01*
X14941048Y66882934D01*
X14653584Y66795733D01*
X14388656Y66654126D01*
X14156445Y66463555D01*
X14018115Y66295000D01*
X12571674Y66295000D01*
X13831307Y67554632D01*
X13974125Y67728656D01*
X14115732Y67993584D01*
X14202934Y68281047D01*
X14232378Y68579999D01*
X14202934Y68878951D01*
X14115732Y69166415D01*
X13974125Y69431343D01*
X13783554Y69663554D01*
X13551343Y69854125D01*
X13286415Y69995732D01*
X12998951Y70082934D01*
X12699999Y70112378D01*
X12565840Y70099165D01*
X13725369Y71258693D01*
X13783555Y71306445D01*
X13831316Y71364642D01*
X14601675Y72135000D01*
X15314911Y72135000D01*
X15538952Y72157066D01*
X15826416Y72244267D01*
X16091344Y72385874D01*
X16323555Y72576445D01*
X16514126Y72808656D01*
X16655733Y73073584D01*
X16742934Y73361048D01*
X16772378Y73660000D01*
X16742934Y73958952D01*
X16655733Y74246416D01*
X16514126Y74511344D01*
X16323555Y74743555D01*
X16091344Y74934126D01*
X15826416Y75075733D01*
X15538952Y75162934D01*
X15314911Y75185000D01*
X14225000Y75185000D01*
X14225000Y78665090D01*
X14232378Y78740000D01*
X14222506Y78840238D01*
X14202934Y79038952D01*
X14115733Y79326416D01*
X13974126Y79591344D01*
X13839817Y79755000D01*
X13895089Y79755000D01*
X13970000Y79747622D01*
X14044910Y79755000D01*
X14044911Y79755000D01*
X14268952Y79777066D01*
X14556416Y79864267D01*
X14821344Y80005874D01*
X15053555Y80196445D01*
X15170005Y80338339D01*
X15286455Y80196445D01*
X15518666Y80005874D01*
X15783594Y79864267D01*
X16071058Y79777066D01*
X16149633Y79769327D01*
X21335000Y74583958D01*
X21335000Y73734910D01*
X21335001Y71270204D01*
X21335000Y71270199D01*
X21335000Y70969801D01*
X21349690Y70895951D01*
X21357067Y70821048D01*
X21378916Y70749023D01*
X21393605Y70675174D01*
X21422419Y70605610D01*
X21444268Y70533584D01*
X21479748Y70467206D01*
X21508562Y70397642D01*
X21550395Y70335035D01*
X21585875Y70268656D01*
X21633623Y70210475D01*
X21675455Y70147869D01*
X21728698Y70094626D01*
X21776446Y70036445D01*
X21834627Y69988697D01*
X21887869Y69935455D01*
X21950474Y69893624D01*
X22008657Y69845874D01*
X22075038Y69810392D01*
X22137642Y69768562D01*
X22207202Y69739749D01*
X22273585Y69704267D01*
X22345616Y69682417D01*
X22415174Y69653605D01*
X22489016Y69638917D01*
X22561049Y69617066D01*
X22635960Y69609688D01*
X22709801Y69595000D01*
X22785090Y69595000D01*
X22860000Y69587622D01*
X22934911Y69595000D01*
X23010199Y69595000D01*
X23084040Y69609688D01*
X23158952Y69617066D01*
X23230987Y69638917D01*
X23304826Y69653605D01*
X23374381Y69682415D01*
X23446416Y69704267D01*
X23512802Y69739751D01*
X23582358Y69768562D01*
X23644958Y69810390D01*
X23711344Y69845874D01*
X23769532Y69893627D01*
X23832131Y69935455D01*
X23885368Y69988692D01*
X23943555Y70036445D01*
X23991309Y70094633D01*
X24044545Y70147869D01*
X24086373Y70210468D01*
X24134126Y70268656D01*
X24169610Y70335042D01*
X24211438Y70397642D01*
X24240249Y70467198D01*
X24275733Y70533584D01*
X24297585Y70605619D01*
X24326395Y70675174D01*
X24341083Y70749013D01*
X24362934Y70821048D01*
X24370312Y70895960D01*
X24385000Y70969801D01*
X24385000Y75140723D01*
X24392378Y75215634D01*
X24362934Y75514586D01*
X24275733Y75802050D01*
X24134126Y76066978D01*
X23991308Y76241002D01*
X23943555Y76299189D01*
X23885368Y76346942D01*
X17926951Y82305357D01*
X17895010Y82344277D01*
X17895010Y83201155D01*
X17932898Y83272038D01*
X18014381Y83540651D01*
X18041894Y83820000D01*
X18014381Y84099349D01*
X17932898Y84367962D01*
X17800576Y84615518D01*
X17622502Y84832502D01*
X17405518Y85010576D01*
X17157962Y85142898D01*
X16889349Y85224381D01*
X16679997Y85245000D01*
X16340003Y85245000D01*
X16130651Y85224381D01*
X15862038Y85142898D01*
X15614482Y85010576D01*
X15596221Y84995589D01*
X15518667Y84954136D01*
X15286456Y84763565D01*
X15227449Y84691665D01*
X15053555Y84903555D01*
X14821344Y85094126D01*
X14556416Y85235733D01*
X14268952Y85322934D01*
X13970000Y85352378D01*
X13671049Y85322934D01*
X13383585Y85235733D01*
X13118657Y85094126D01*
X12886446Y84903555D01*
X12695875Y84671344D01*
X12554268Y84406416D01*
X12467067Y84118952D01*
X12445001Y83894911D01*
X12445001Y83890007D01*
X12438106Y83820000D01*
X12445001Y83749993D01*
X12445001Y82805000D01*
X10234911Y82805000D01*
X10160000Y82812378D01*
X10085090Y82805000D01*
X10085089Y82805000D01*
X9861048Y82782934D01*
X9573584Y82695733D01*
X9308656Y82554126D01*
X9076445Y82363555D01*
X8885874Y82131344D01*
X8744267Y81866416D01*
X8657066Y81578952D01*
X8627622Y81280000D01*
X8635001Y81205080D01*
X8635000Y78995000D01*
X3740089Y78995000D01*
X3516048Y78972934D01*
X3228584Y78885733D01*
X2963656Y78744126D01*
X2731445Y78553555D01*
X2540874Y78321344D01*
X2399267Y78056416D01*
X2312066Y77768952D01*
X2282622Y77470000D01*
X475000Y77470000D01*
X475000Y86559445D01*
X1785000Y86559445D01*
X1785000Y86160555D01*
X1862820Y85769329D01*
X2015468Y85400803D01*
X2237080Y85069138D01*
X2519138Y84787080D01*
X2850803Y84565468D01*
X3219329Y84412820D01*
X3610555Y84335000D01*
X4009445Y84335000D01*
X4400671Y84412820D01*
X4769197Y84565468D01*
X5100862Y84787080D01*
X5382920Y85069138D01*
X5604532Y85400803D01*
X5757180Y85769329D01*
X5835000Y86160555D01*
X5835000Y86559445D01*
X5757180Y86950671D01*
X5604532Y87319197D01*
X5382920Y87650862D01*
X5203870Y87829912D01*
X26415000Y87829912D01*
X26415000Y86410091D01*
X26415001Y86410082D01*
X26415000Y76350199D01*
X26415000Y76049801D01*
X26429688Y75975960D01*
X26437066Y75901049D01*
X26458917Y75829016D01*
X26473605Y75755174D01*
X26502417Y75685616D01*
X26524267Y75613585D01*
X26559749Y75547202D01*
X26588562Y75477642D01*
X26630392Y75415038D01*
X26665874Y75348657D01*
X26713625Y75290472D01*
X26755455Y75227869D01*
X26808694Y75174630D01*
X26856445Y75116445D01*
X26914632Y75068692D01*
X26967869Y75015455D01*
X27030468Y74973627D01*
X27088656Y74925874D01*
X27155042Y74890390D01*
X27217642Y74848562D01*
X27287198Y74819751D01*
X27353584Y74784267D01*
X27425619Y74762415D01*
X27495174Y74733605D01*
X27569013Y74718917D01*
X27641048Y74697066D01*
X27715960Y74689688D01*
X27789801Y74675000D01*
X27865089Y74675000D01*
X27940000Y74667622D01*
X28014910Y74675000D01*
X28090199Y74675000D01*
X28164040Y74689688D01*
X28238951Y74697066D01*
X28310984Y74718917D01*
X28384826Y74733605D01*
X28454384Y74762417D01*
X28526415Y74784267D01*
X28592798Y74819749D01*
X28662358Y74848562D01*
X28724962Y74890392D01*
X28791343Y74925874D01*
X28849528Y74973625D01*
X28912131Y75015455D01*
X28965370Y75068694D01*
X29023555Y75116445D01*
X29071308Y75174632D01*
X29124545Y75227869D01*
X29166373Y75290468D01*
X29214126Y75348656D01*
X29249610Y75415042D01*
X29291438Y75477642D01*
X29320249Y75547198D01*
X29355733Y75613584D01*
X29377585Y75685619D01*
X29406395Y75755174D01*
X29421083Y75829013D01*
X29442934Y75901048D01*
X29450312Y75975960D01*
X29465000Y76049801D01*
X29465000Y78740000D01*
X30217622Y78740000D01*
X30247066Y78441048D01*
X30334267Y78153584D01*
X30475874Y77888656D01*
X30666445Y77656445D01*
X30898656Y77465874D01*
X31163584Y77324267D01*
X31451048Y77237066D01*
X31675089Y77215000D01*
X31675090Y77215000D01*
X31750000Y77207622D01*
X32048952Y77237066D01*
X32336416Y77324267D01*
X32601344Y77465874D01*
X32833555Y77656445D01*
X33024126Y77888656D01*
X33165733Y78153584D01*
X33252934Y78441048D01*
X33275000Y78665089D01*
X33275000Y78665090D01*
X33282378Y78740000D01*
X33275000Y78814911D01*
X33275000Y80010000D01*
X40377622Y80010000D01*
X40385000Y79935090D01*
X40407066Y79711049D01*
X40494267Y79423585D01*
X40635874Y79158657D01*
X40826445Y78926445D01*
X40884642Y78878684D01*
X43265455Y76497869D01*
X43477869Y76285455D01*
X43540469Y76243627D01*
X43598655Y76195875D01*
X43665038Y76160393D01*
X43727642Y76118562D01*
X43797205Y76089748D01*
X43863584Y76054268D01*
X43935611Y76032419D01*
X44005174Y76003605D01*
X44079021Y75988916D01*
X44151047Y75967067D01*
X44225951Y75959690D01*
X44299801Y75945000D01*
X44375099Y75945000D01*
X44449999Y75937623D01*
X44524899Y75945000D01*
X44600199Y75945000D01*
X44674051Y75959690D01*
X44748951Y75967067D01*
X44820974Y75988915D01*
X44894826Y76003605D01*
X44964393Y76032420D01*
X45036415Y76054268D01*
X45102789Y76089746D01*
X45172358Y76118562D01*
X45234969Y76160397D01*
X45301343Y76195875D01*
X45359520Y76243619D01*
X45422131Y76285455D01*
X45475379Y76338703D01*
X45533554Y76386446D01*
X45581297Y76444621D01*
X45634545Y76497869D01*
X45676381Y76560480D01*
X45724125Y76618657D01*
X45759603Y76685031D01*
X45801438Y76747642D01*
X45830254Y76817211D01*
X45865732Y76883585D01*
X45887580Y76955607D01*
X45916395Y77025174D01*
X45931085Y77099026D01*
X45952933Y77171049D01*
X45960310Y77245949D01*
X45975000Y77319801D01*
X45975000Y77395101D01*
X45982377Y77470001D01*
X45975000Y77544901D01*
X45975000Y77620199D01*
X45960310Y77694049D01*
X45952933Y77768953D01*
X45931084Y77840979D01*
X45916395Y77914826D01*
X45887581Y77984389D01*
X45865732Y78056416D01*
X45830252Y78122795D01*
X45801438Y78192358D01*
X45759607Y78254962D01*
X45724125Y78321345D01*
X45676373Y78379531D01*
X45634545Y78442131D01*
X45422131Y78654545D01*
X43435000Y80641674D01*
X43435000Y85090000D01*
X44187622Y85090000D01*
X44217066Y84791048D01*
X44304267Y84503585D01*
X44304268Y84503584D01*
X44445875Y84238656D01*
X44636446Y84006445D01*
X44694638Y83958688D01*
X50545000Y78108325D01*
X50545000Y77544911D01*
X50537622Y77470000D01*
X50545000Y77395089D01*
X50551445Y77329650D01*
X50567066Y77171048D01*
X50654267Y76883584D01*
X50795874Y76618656D01*
X50986445Y76386445D01*
X51218656Y76195874D01*
X51483584Y76054267D01*
X51771048Y75967066D01*
X51995089Y75945000D01*
X51995090Y75945000D01*
X52070000Y75937622D01*
X52368952Y75967066D01*
X52656416Y76054267D01*
X52921344Y76195874D01*
X53153555Y76386445D01*
X53344126Y76618656D01*
X53485733Y76883584D01*
X53572934Y77171048D01*
X53595000Y77395089D01*
X53602378Y77470000D01*
X53595000Y77544911D01*
X53595000Y78665090D01*
X53602378Y78740001D01*
X53572934Y79038953D01*
X53485733Y79326416D01*
X53344126Y79591344D01*
X53153555Y79823555D01*
X53095364Y79871311D01*
X47245000Y85721674D01*
X47245000Y86559445D01*
X55125000Y86559445D01*
X55125000Y86160555D01*
X55202820Y85769329D01*
X55355468Y85400803D01*
X55577080Y85069138D01*
X55859138Y84787080D01*
X56190803Y84565468D01*
X56559329Y84412820D01*
X56950555Y84335000D01*
X57349445Y84335000D01*
X57740671Y84412820D01*
X58109197Y84565468D01*
X58440862Y84787080D01*
X58722920Y85069138D01*
X58944532Y85400803D01*
X59097180Y85769329D01*
X59175000Y86160555D01*
X59175000Y86559445D01*
X59097180Y86950671D01*
X58944532Y87319197D01*
X58722920Y87650862D01*
X58440862Y87932920D01*
X58109197Y88154532D01*
X57740671Y88307180D01*
X57349445Y88385000D01*
X56950555Y88385000D01*
X56559329Y88307180D01*
X56190803Y88154532D01*
X55859138Y87932920D01*
X55577080Y87650862D01*
X55355468Y87319197D01*
X55202820Y86950671D01*
X55125000Y86559445D01*
X47245000Y86559445D01*
X47245000Y87829912D01*
X47222934Y88053953D01*
X47135733Y88341417D01*
X46994126Y88606345D01*
X46803555Y88838556D01*
X46571344Y89029127D01*
X46306416Y89170734D01*
X46018952Y89257935D01*
X45720000Y89287379D01*
X45421049Y89257935D01*
X45133585Y89170734D01*
X44868657Y89029127D01*
X44636446Y88838556D01*
X44445875Y88606345D01*
X44304267Y88341417D01*
X44217066Y88053953D01*
X44195000Y87829912D01*
X44195000Y86410091D01*
X44195001Y86410086D01*
X44195001Y85164920D01*
X44187622Y85090000D01*
X43435000Y85090000D01*
X43435000Y87829912D01*
X43412934Y88053953D01*
X43325733Y88341417D01*
X43184126Y88606345D01*
X42993555Y88838556D01*
X42761344Y89029127D01*
X42496416Y89170734D01*
X42208952Y89257935D01*
X41910000Y89287379D01*
X41611049Y89257935D01*
X41323585Y89170734D01*
X41058657Y89029127D01*
X40826446Y88838556D01*
X40635875Y88606345D01*
X40494267Y88341417D01*
X40407066Y88053953D01*
X40385000Y87829912D01*
X40385000Y86410091D01*
X40385001Y86410083D01*
X40385000Y80084911D01*
X40377622Y80010000D01*
X33275000Y80010000D01*
X33275000Y87829912D01*
X33252934Y88053953D01*
X33165733Y88341417D01*
X33024126Y88606345D01*
X32833555Y88838556D01*
X32601344Y89029127D01*
X32336416Y89170734D01*
X32048952Y89257935D01*
X31750000Y89287379D01*
X31451049Y89257935D01*
X31163585Y89170734D01*
X30898657Y89029127D01*
X30666446Y88838556D01*
X30475875Y88606345D01*
X30334267Y88341417D01*
X30247066Y88053953D01*
X30225000Y87829912D01*
X30225000Y87824911D01*
X30225001Y78814921D01*
X30217622Y78740000D01*
X29465000Y78740000D01*
X29465000Y87829912D01*
X29442934Y88053953D01*
X29355733Y88341417D01*
X29214126Y88606345D01*
X29023555Y88838556D01*
X28791344Y89029127D01*
X28526416Y89170734D01*
X28238952Y89257935D01*
X27940000Y89287379D01*
X27641049Y89257935D01*
X27353585Y89170734D01*
X27088657Y89029127D01*
X26856446Y88838556D01*
X26665875Y88606345D01*
X26524267Y88341417D01*
X26437066Y88053953D01*
X26415000Y87829912D01*
X5203870Y87829912D01*
X5100862Y87932920D01*
X4769197Y88154532D01*
X4400671Y88307180D01*
X4009445Y88385000D01*
X3610555Y88385000D01*
X3219329Y88307180D01*
X2850803Y88154532D01*
X2519138Y87932920D01*
X2237080Y87650862D01*
X2015468Y87319197D01*
X1862820Y86950671D01*
X1785000Y86559445D01*
X475000Y86559445D01*
X475000Y89695000D01*
X2516668Y89695000D01*
X2540000Y89692702D01*
X2563332Y89695000D01*
X2633116Y89701873D01*
X2722654Y89729034D01*
X2805173Y89773141D01*
X2877501Y89832499D01*
X2936859Y89904827D01*
X2980966Y89987346D01*
X3008127Y90076884D01*
X3017298Y90170000D01*
X3015000Y90193332D01*
X3015000Y92235000D01*
X57945001Y92235000D01*
X57945000Y90193332D01*
%TD*%
M02*
