M48
; DRILL file {KiCad (5.1.6)-1} date 03/01/26 20:04:43
; FORMAT={-:-/ absolute / metric / decimal}
; #@! TF.CreationDate,2026-03-01T20:04:43-05:00
; #@! TF.GenerationSoftware,Kicad,Pcbnew,(5.1.6)-1
FMAT,2
METRIC
T1C0.800
T2C0.900
T3C1.000
T4C3.200
%
G90
G05
T1
X7.62Y69.85
X7.62Y59.69
X8.89Y24.13
X8.89Y10.16
X11.43Y52.07
X11.43Y34.29
X12.7Y78.74
X12.7Y68.58
X19.05Y34.29
X24.13Y17.78
X30.48Y68.58
X31.75Y78.74
X31.75Y17.78
X46.99Y36.83
X46.99Y26.67
X52.07Y77.47
X52.07Y57.15
X11.43Y64.77
X11.43Y57.15
X15.24Y65.38
X15.24Y55.88
X30.48Y65.38
X30.48Y55.88
X11.43Y46.99
X13.93Y46.99
X15.24Y73.66
X19.04Y73.66
X22.86Y73.66
X30.48Y73.66
X5.08Y57.15
X7.62Y57.15
X27.94Y76.2
X35.56Y76.2
X22.86Y71.12
X30.48Y71.12
X44.45Y67.31
X49.49Y67.31
X46.99Y77.47
X46.99Y69.85
X13.97Y26.67
X21.59Y26.67
X44.45Y77.47
X44.45Y69.85
X11.43Y49.53
X11.43Y24.13
X13.97Y49.53
X13.97Y24.13
X16.51Y49.53
X16.51Y24.13
X19.05Y49.53
X19.05Y24.13
X21.59Y49.53
X21.59Y24.13
X24.13Y49.53
X24.13Y24.13
X26.67Y49.53
X26.67Y24.13
X29.21Y49.53
X29.21Y24.13
X31.75Y49.53
X31.75Y24.13
X34.29Y49.53
X34.29Y24.13
X36.83Y49.53
X36.83Y24.13
X39.37Y49.53
X39.37Y24.13
X41.91Y49.53
X41.91Y24.13
X44.45Y49.53
X44.45Y24.13
X46.99Y49.53
X46.99Y24.13
X24.13Y39.37
X24.13Y31.75
X30.48Y39.37
X30.48Y31.75
X49.53Y57.15
X49.53Y49.53
X10.16Y74.93
X10.16Y67.31
X22.86Y3.81
X30.48Y3.81
T2
X5.08Y54.61
X7.62Y54.61
X11.84Y17.78
X11.84Y15.24
X11.84Y12.7
X11.84Y10.16
X53.34Y17.78
X53.34Y15.24
X53.34Y12.7
X53.34Y10.16
X17.78Y3.81
X20.32Y3.81
X11.43Y83.82
X13.97Y83.82
X16.51Y83.82
X34.29Y41.91
X34.29Y39.37
X34.29Y36.83
X34.29Y34.29
X34.29Y31.75
X34.29Y29.21
T3
X5.08Y67.31
X5.08Y63.5
X38.1Y87.75
X41.91Y87.75
X45.72Y87.75
X24.13Y87.75
X27.94Y87.75
X31.75Y87.75
X5.08Y77.47
X5.08Y73.66
X5.08Y17.78
X5.08Y13.97
X5.08Y10.16
T4
X57.15Y86.36
X3.81Y3.81
X57.15Y3.81
X3.81Y86.36
T0
M30
